<svg width="95" height="95" viewBox="0 0 95 95" fill="none" xmlns="http://www.w3.org/2000/svg">
<g opacity="0.9">
<path d="M67.4498 78.4161C67.4498 79.8333 67.5011 80.8529 67.6037 81.4751C67.7063 82.0627 67.8602 82.5466 68.0654 82.9268C68.3391 83.3762 68.7495 83.8601 69.2967 84.3785C69.844 84.897 70.5451 85.1562 71.4002 85.1562C72.0843 85.1562 72.8709 84.9834 73.7602 84.6378C74.6494 84.2921 75.5216 83.8082 76.3767 83.1861C76.0347 83.4971 75.5216 83.981 74.8376 84.6378C74.1535 85.2945 73.4182 86.0031 72.6315 86.7635C71.879 87.5239 71.1266 88.2497 70.3741 88.941C69.6559 89.5978 69.0744 90.0989 68.6298 90.4446C68.0141 90.9285 67.3985 91.2914 66.7829 91.5334C66.1672 91.8099 65.4832 91.9482 64.7307 91.9482C64.2861 91.9482 63.7388 91.7753 63.089 91.4297C62.4733 91.1186 61.7209 90.4792 60.8316 89.5114C60.216 88.8201 59.72 88.0596 59.3438 87.2301C59.0018 86.4006 58.8307 85.4846 58.8307 84.4822L59.036 72.1945L53.7004 67.5801L59.1899 62.1362L59.3438 53.5296C59.3438 50.488 58.7452 48.3277 57.5481 47.0488C56.3853 45.7699 54.3502 45.1305 51.443 45.1305C49.9039 45.1305 48.4503 45.4761 47.0821 46.1674C45.714 46.8241 44.5341 47.5327 43.5422 48.2931C44.9445 46.876 46.2955 45.5452 47.5952 44.3009C48.9291 43.0566 50.2117 41.9678 51.443 41.0346C52.6743 40.1013 53.8543 39.3755 54.983 38.857C56.1458 38.304 57.2574 38.0274 58.3177 38.0274C59.6516 38.0274 60.9 38.2003 62.0629 38.5459C63.2258 38.8916 64.2348 39.4964 65.0898 40.3606C65.9791 41.1901 66.6802 42.3134 67.1933 43.7306C67.7063 45.1477 67.9628 46.9451 67.9628 49.1227C67.9628 49.5029 67.9457 50.0905 67.9115 50.8855C67.9115 51.6459 67.8944 52.5791 67.8602 53.6852C67.8602 54.7567 67.8431 55.9492 67.8089 57.2626C67.8089 58.5415 67.7918 59.8722 67.7576 61.2548L72.5289 65.5062L67.6037 70.2762C67.5695 71.4513 67.5524 72.5401 67.5524 73.5425C67.5524 74.5103 67.5353 75.3571 67.5011 76.083C67.4669 76.9471 67.4498 77.7248 67.4498 78.4161ZM89.3566 78.9346C89.3566 81.3196 89.5105 82.754 89.8183 83.2379C90.0919 83.6872 90.4682 84.1193 90.947 84.5341C91.4258 84.9143 92.0928 85.1044 92.9478 85.1044C93.3241 85.1044 93.6661 85.0525 93.9739 84.9488C94.2817 84.8106 94.6238 84.6205 95 84.3785C94.6922 84.655 94.1962 85.1217 93.5122 85.7784C92.8623 86.4005 92.1612 87.0746 91.4087 87.8004C90.6563 88.5263 89.9038 89.2348 89.1513 89.9261C88.4331 90.5829 87.8516 91.084 87.407 91.4297C87.2018 91.6025 86.9795 91.7408 86.7401 91.8445C86.5007 91.9482 86.1928 92 85.8166 92C85.372 92 84.7905 91.8272 84.0723 91.4815C83.3882 91.1705 82.6016 90.531 81.7123 89.5632C81.0966 88.8719 80.652 88.1979 80.3784 87.5412C80.139 86.8499 80.0193 86.0031 80.0193 85.0007L80.5323 53.7889C80.5323 52.1298 80.4297 50.7472 80.2245 49.6411C80.0193 48.5351 79.6772 47.6537 79.1984 46.9969C78.7196 46.3402 78.0697 45.8909 77.2488 45.6489C76.428 45.3724 75.3848 45.2342 74.1193 45.2342C72.6828 45.2342 71.5028 45.5107 70.5793 46.0637C69.6559 46.5822 68.9376 47.0834 68.4246 47.5673C69.7585 46.1847 70.9898 44.9231 72.1185 43.7824C73.2813 42.6072 74.3758 41.6049 75.4019 40.7753C76.428 39.9458 77.437 39.3063 78.4288 38.857C79.4207 38.3731 80.4639 38.1311 81.5584 38.1311C82.8923 38.1311 84.0723 38.3212 85.0983 38.7014C86.1244 39.0471 86.9795 39.652 87.6635 40.5161C88.3818 41.3802 88.929 42.5381 89.3053 43.9898C89.6815 45.407 89.8696 47.2043 89.8696 49.3819C89.8696 49.8312 89.8525 50.6089 89.8183 51.715C89.8183 52.7865 89.8012 54.0654 89.767 55.5517C89.7328 57.0034 89.6986 58.5933 89.6644 60.3216C89.6644 62.0498 89.6473 63.778 89.6131 65.5062C89.5105 69.5849 89.425 74.061 89.3566 78.9346ZM40.9257 76.5496C40.9257 75.0633 40.6179 73.6808 40.0022 72.4019C39.4208 71.123 38.7538 69.8614 38.0014 68.6171C37.2831 67.3727 36.6161 66.1111 36.0005 64.8322C35.4191 63.5534 35.1283 62.1535 35.1283 60.6326C35.1283 59.734 35.2822 58.8353 35.5901 57.9366C35.8979 57.0034 36.3767 56.0529 37.0266 55.085C37.6764 54.1172 38.4973 53.0976 39.4892 52.0261C40.5152 50.9546 41.7465 49.8139 43.1831 48.6042C42.6016 49.2609 42.1912 49.8485 41.9518 50.367C41.7123 50.8855 41.5926 51.4731 41.5926 52.1298C41.5926 53.5124 41.9347 54.8777 42.6187 56.2257C43.3028 57.5391 44.0552 58.8699 44.8761 60.2179C45.7311 61.5659 46.5007 62.9312 47.1848 64.3138C47.8688 65.6618 48.2108 67.0789 48.2108 68.5652C48.2108 69.6021 48.0227 70.6218 47.6465 71.6242C47.2703 72.6265 46.6717 73.6635 45.8509 74.735C45.03 75.7719 43.9697 76.8607 42.67 78.0014C41.3703 79.142 39.797 80.369 37.9501 81.6825C38.8393 80.9912 39.5576 80.248 40.1048 79.4531C40.6521 78.6235 40.9257 77.6557 40.9257 76.5496ZM44.5683 91.5852C43.5422 91.5852 42.5332 91.4297 41.5413 91.1186C40.5837 90.8421 39.626 90.531 38.6683 90.1854C37.7106 89.8052 36.7701 89.4595 35.8466 89.1484C34.9231 88.8373 34.0168 88.6818 33.1275 88.6818C31.9304 88.6818 30.9727 88.8892 30.2545 89.304C29.5362 89.7187 28.7153 90.3582 27.7919 91.2223C29.3652 89.4249 30.7333 87.9214 31.8962 86.7116C33.0933 85.4673 34.1536 84.4649 35.077 83.7045C36.0347 82.9441 36.924 82.4083 37.7448 82.0973C38.5657 81.7862 39.4208 81.6306 40.31 81.6306C41.1651 81.6306 42.0544 81.7862 42.9778 82.0973C43.9013 82.3738 44.8248 82.6849 45.7482 83.0305C46.7059 83.3416 47.6294 83.6354 48.5187 83.9119C49.4421 84.1884 50.3485 84.3267 51.2378 84.3267C52.0586 84.3267 52.7427 84.2921 53.2899 84.223C53.8372 84.1193 54.316 83.981 54.7264 83.8082C55.1711 83.6008 55.5815 83.3416 55.9577 83.0305C56.334 82.7194 56.7786 82.3565 57.2916 81.9417C55.7525 83.7045 54.4357 85.2081 53.3412 86.4524C52.2467 87.6622 51.2378 88.6472 50.3143 89.4077C49.3908 90.1681 48.4845 90.7211 47.5952 91.0668C46.7059 91.4124 45.6969 91.5852 44.5683 91.5852Z" fill="#F5F2EE"/>
<path fill-rule="evenodd" clip-rule="evenodd" d="M41.2236 48.4662C38.9569 50.9423 37.1059 52.9241 35.6707 54.4116C34.2696 55.8983 33.0996 57.0335 32.1605 57.8173C31.2215 58.6011 30.4467 59.1042 29.8363 59.3267C29.2266 59.5838 28.597 59.7203 27.9473 59.7363C27.0241 59.759 26.0121 59.6457 24.9113 59.3962C23.8447 59.1459 22.7422 58.8273 21.6038 58.4405C20.4988 58.0182 19.3592 57.5796 18.185 57.1245C17.0441 56.6339 15.9216 56.1948 14.8175 55.8072C13.7125 55.3849 12.6608 55.0478 11.6626 54.7958C10.6985 54.543 9.80618 54.4267 8.98556 54.4469C8.3701 54.462 7.82469 54.5446 7.34933 54.6946C6.87314 54.8101 6.33231 55.0827 5.72685 55.5126C5.12056 55.9078 4.3825 56.5138 3.51267 57.3304C2.64202 58.1125 1.5049 59.1951 0.101339 60.5781L1.281e-05 60.6325L7.567 53.0816L20.8833 39.2174C18.7501 38.7167 16.601 38.2684 14.436 37.8722C12.3052 37.4753 10.2654 37.3008 8.31639 37.3488C7.70092 37.364 7.13841 37.447 6.62886 37.5979C6.11848 37.7142 5.61018 37.9169 5.10396 38.2059C4.59774 38.495 4.05942 38.8713 3.48899 39.3348C2.91855 39.7984 2.26556 40.385 1.53 41.0946C4.62902 37.6644 7.20139 35.0944 9.2471 33.3844C8.33142 32.3005 7.59754 30.9529 7.04546 29.3415C6.49339 27.7301 6.18858 25.7323 6.13105 23.348C6.07685 21.102 6.46882 18.9141 7.30697 16.7844C8.14511 14.6547 9.33101 12.7584 10.8647 11.0956C12.4317 9.39741 14.2977 8.03758 16.4627 7.01613C18.6268 5.96013 20.9911 5.40053 23.5555 5.33734C25.7438 5.28341 27.767 5.47557 29.6251 5.91383C31.4823 6.31753 33.2253 6.94879 34.854 7.8076C36.5169 8.66556 38.0656 9.75108 39.5 11.0641C40.9336 12.3427 42.3205 13.8125 43.6606 15.4736L47.9164 11.0642L54.674 3.99997L54.7265 4.05054L49.9754 9.19826C49.9963 10.0621 50.0133 11.4793 50.0267 13.4497C50.0734 15.3847 50.1096 17.5966 50.1355 20.0854C50.1605 22.5396 50.1722 25.1497 50.1705 27.9157C50.2022 30.6463 50.1676 39.9761 50.1676 39.9761C50.1676 39.9761 47.6329 42.231 46.1979 43.6713C44.604 45.2709 41.7661 47.7456 41.2236 48.4662ZM18.7555 29.7271C17.9316 29.6091 17.2119 29.5577 16.5964 29.5729C15.7074 29.5948 14.6879 29.8792 13.5379 30.4262C12.4212 30.9378 11.0076 31.9061 9.29714 33.3313C8.58744 32.2769 7.99284 31.0296 7.51331 29.5893C7.06798 28.1481 6.82781 26.7019 6.79279 25.2506C6.75777 23.7993 6.92874 22.3776 7.3057 20.9853C7.68182 19.5584 8.30104 18.2812 9.16336 17.1536C10.059 15.9905 11.2166 15.0458 12.636 14.3193C14.0554 13.5928 15.7909 13.2043 17.8424 13.1537C19.7572 13.1065 21.5569 13.2524 23.2415 13.5912C24.9253 13.8954 26.5461 14.426 28.1039 15.1828C29.6609 15.9051 31.1558 16.8882 32.5885 18.1321C34.0204 19.3415 35.4419 20.8278 36.853 22.5909L27.9425 31.8864C26.8058 31.5687 25.6866 31.2678 24.5849 30.9838C23.5175 30.6989 22.485 30.4477 21.4876 30.2303C20.4902 30.0129 19.5795 29.8451 18.7555 29.7271ZM27.1768 40.5663C29.1016 40.9337 30.8504 41.0981 32.4233 41.0593C32.7652 41.0509 33.1568 40.9721 33.5979 40.8229C34.0391 40.6737 34.5791 40.3666 35.2179 39.9013C35.8909 39.4353 36.6965 38.7931 37.6347 37.9747C38.6063 37.121 39.7768 36.003 41.1461 34.6209L41.2199 48.3107C40.1849 49.3734 39.333 50.2242 38.6642 50.8631C38.0287 51.4665 37.4925 51.9292 37.0555 52.2511C36.6185 52.5731 36.2303 52.7901 35.8909 52.9022C35.5506 52.9797 35.1924 53.0231 34.8163 53.0324C33.6196 53.0619 32.2448 52.8019 30.6919 52.2524C29.1391 51.7029 27.5337 51.1028 25.8758 50.4521C24.2171 49.767 22.56 49.1509 20.9046 48.6039C19.2492 48.0569 17.7376 47.8003 16.3699 47.834C15.6519 47.8517 14.988 47.9891 14.3784 48.2461C13.7679 48.4686 13.0929 48.8483 12.3531 49.3851C11.6126 49.8874 10.7565 50.5654 9.78493 51.4192C8.84755 52.2721 7.70961 53.3201 6.37109 54.5632L21.141 39.2629C23.2393 39.7298 25.2512 40.1642 27.1768 40.5663ZM41.1374 34.2581C40.8664 34.3685 40.5941 34.427 40.3205 34.4338C39.6709 34.4498 38.8828 34.4001 37.9562 34.2846C37.0631 34.1337 36.0836 33.9504 35.0178 33.7347C33.9853 33.4835 32.8666 33.1999 31.6615 32.8839L28.1489 31.9332L41.0161 18.5987C41.0336 19.3243 41.0386 20.2404 41.0311 21.347C41.0578 22.4527 41.0707 23.6971 41.0699 25.0801C41.1032 26.4623 41.1216 27.9313 41.1249 29.487C41.1282 31.0428 41.1324 32.6332 41.1374 34.2581Z" fill="#F5F2EE"/>
</g>
</svg>
