<svg width="95" height="87" viewBox="0 0 95 87" fill="none" xmlns="http://www.w3.org/2000/svg">
<g opacity="0.9">
<path d="M67.4498 73.5705C67.4498 74.9715 67.5011 75.9796 67.6037 76.5947C67.7063 77.1756 67.8602 77.654 68.0654 78.0299C68.3391 78.4741 68.7495 78.9526 69.2967 79.4651C69.844 79.9777 70.5451 80.234 71.4002 80.234C72.0843 80.234 72.8709 80.0631 73.7602 79.7214C74.6494 79.3797 75.5216 78.9013 76.3767 78.2862C76.0347 78.5938 75.5216 79.0722 74.8376 79.7214C74.1535 80.3707 73.4182 81.0712 72.6315 81.823C71.879 82.5748 71.1266 83.2924 70.3741 83.9758C69.6559 84.6251 69.0744 85.1206 68.6298 85.4623C68.0141 85.9407 67.3985 86.2995 66.7829 86.5387C66.1672 86.8121 65.4832 86.9488 64.7307 86.9488C64.2861 86.9488 63.7388 86.7779 63.089 86.4362C62.4733 86.1286 61.7209 85.4964 60.8316 84.5396C60.216 83.8562 59.72 83.1044 59.3438 82.2843C59.0018 81.4642 58.8307 80.5586 58.8307 79.5676L59.036 67.4195L53.7004 62.8576L59.1899 57.4756L59.3438 48.9668C59.3438 45.9597 58.7452 43.8239 57.5481 42.5596C56.3853 41.2952 54.3502 40.6631 51.443 40.6631C49.9039 40.6631 48.4503 41.0048 47.0821 41.6882C45.714 42.3375 44.5341 43.038 43.5422 43.7898C44.9445 42.3887 46.2955 41.0731 47.5952 39.8429C48.9291 38.6128 50.2117 37.5363 51.443 36.6137C52.6743 35.6911 53.8543 34.9735 54.983 34.4609C56.1458 33.9141 57.2574 33.6408 58.3177 33.6408C59.6516 33.6408 60.9 33.8116 62.0629 34.1533C63.2258 34.4951 64.2348 35.0931 65.0898 35.9474C65.9791 36.7675 66.6802 37.8781 67.1933 39.2791C67.7063 40.6801 67.9628 42.4571 67.9628 44.6099C67.9628 44.9858 67.9457 45.5667 67.9115 46.3527C67.9115 47.1044 67.8944 48.0271 67.8602 49.1206C67.8602 50.1799 67.8431 51.3588 67.8089 52.6574C67.8089 53.9217 67.7918 55.2373 67.7576 56.6042L72.5289 60.8073L67.6037 65.523C67.5695 66.6849 67.5524 67.7613 67.5524 68.7523C67.5524 69.7091 67.5353 70.5463 67.5011 71.2639C67.4669 72.1182 67.4498 72.887 67.4498 73.5705ZM89.3566 74.0831C89.3566 76.4409 89.5105 77.8591 89.8183 78.3375C90.0919 78.7817 90.4682 79.2088 90.947 79.6189C91.4258 79.9948 92.0928 80.1827 92.9478 80.1827C93.3241 80.1827 93.6661 80.1315 93.9739 80.029C94.2817 79.8923 94.6238 79.7043 95 79.4651C94.6922 79.7385 94.1962 80.1998 93.5122 80.8491C92.8623 81.4642 92.1612 82.1305 91.4087 82.8481C90.6563 83.5657 89.9038 84.2663 89.1513 84.9497C88.4331 85.599 87.8516 86.0944 87.407 86.4362C87.2018 86.607 86.9795 86.7437 86.7401 86.8462C86.5007 86.9487 86.1928 87 85.8166 87C85.372 87 84.7905 86.8291 84.0723 86.4874C83.3882 86.1799 82.6016 85.5477 81.7123 84.5909C81.0966 83.9075 80.652 83.2411 80.3784 82.5918C80.139 81.9084 80.0193 81.0712 80.0193 80.0802L80.5323 49.2231C80.5323 47.5828 80.4297 46.216 80.2245 45.1225C80.0193 44.029 79.6772 43.1576 79.1984 42.5083C78.7196 41.8591 78.0697 41.4148 77.2488 41.1756C76.428 40.9023 75.3848 40.7656 74.1193 40.7656C72.6828 40.7656 71.5028 41.039 70.5793 41.5857C69.6559 42.0983 68.9376 42.5938 68.4246 43.0722C69.7585 41.7053 70.9898 40.458 72.1185 39.3304C73.2813 38.1685 74.3758 37.1775 75.4019 36.3574C76.428 35.5373 77.437 34.9051 78.4288 34.4609C79.4207 33.9825 80.4639 33.7433 81.5584 33.7433C82.8923 33.7433 84.0723 33.9312 85.0983 34.3071C86.1244 34.6488 86.9795 35.2468 87.6635 36.1011C88.3818 36.9554 88.929 38.1002 89.3053 39.5354C89.6815 40.9364 89.8696 42.7134 89.8696 44.8662C89.8696 45.3104 89.8525 46.0793 89.8183 47.1728C89.8183 48.2321 89.8012 49.4965 89.767 50.9659C89.7328 52.4011 89.6986 53.973 89.6644 55.6816C89.6644 57.3901 89.6473 59.0987 89.6131 60.8073C89.5105 64.8396 89.425 69.2649 89.3566 74.0831ZM40.9257 71.7252C40.9257 70.2558 40.6179 68.8889 40.0022 67.6246C39.4208 66.3602 38.7538 65.113 38.0014 63.8828C37.2831 62.6526 36.6161 61.4053 36.0005 60.141C35.4191 58.8766 35.1283 57.4927 35.1283 55.9891C35.1283 55.1006 35.2822 54.2122 35.5901 53.3237C35.8979 52.4011 36.3767 51.4613 37.0266 50.5045C37.6764 49.5477 38.4973 48.5397 39.4892 47.4803C40.5152 46.421 41.7465 45.2933 43.1831 44.0973C42.6016 44.7466 42.1912 45.3275 41.9518 45.8401C41.7123 46.3527 41.5926 46.9336 41.5926 47.5828C41.5926 48.9497 41.9347 50.2995 42.6187 51.6322C43.3028 52.9307 44.0552 54.2463 44.8761 55.579C45.7311 56.9117 46.5007 58.2615 47.1848 59.6284C47.8688 60.9611 48.2108 62.3621 48.2108 63.8315C48.2108 64.8567 48.0227 65.8647 47.6465 66.8557C47.2703 67.8467 46.6717 68.8718 45.8509 69.9312C45.03 70.9563 43.9697 72.0328 42.67 73.1604C41.3703 74.2881 39.797 75.5012 37.9501 76.7997C38.8393 76.1163 39.5576 75.3816 40.1048 74.5956C40.6521 73.7755 40.9257 72.8187 40.9257 71.7252ZM44.5683 86.59C43.5422 86.59 42.5332 86.4362 41.5413 86.1286C40.5837 85.8553 39.626 85.5477 38.6683 85.206C37.7106 84.8301 36.7701 84.4884 35.8466 84.1808C34.9231 83.8733 34.0168 83.7195 33.1275 83.7195C31.9304 83.7195 30.9727 83.9245 30.2545 84.3346C29.5362 84.7447 28.7153 85.3768 27.7919 86.2311C29.3652 84.4542 30.7333 82.9677 31.8962 81.7717C33.0933 80.5415 34.1536 79.5506 35.077 78.7988C36.0347 78.047 36.924 77.5173 37.7448 77.2098C38.5657 76.9022 39.4208 76.7485 40.31 76.7485C41.1651 76.7485 42.0544 76.9022 42.9778 77.2098C43.9013 77.4832 44.8248 77.7907 45.7482 78.1324C46.7059 78.44 47.6294 78.7304 48.5187 79.0038C49.4421 79.2772 50.3485 79.4139 51.2378 79.4139C52.0586 79.4139 52.7427 79.3797 53.2899 79.3114C53.8372 79.2088 54.316 79.0722 54.7264 78.9013C55.1711 78.6963 55.5815 78.44 55.9577 78.1324C56.334 77.8249 56.7786 77.4661 57.2916 77.056C55.7525 78.7988 54.4357 80.2853 53.3412 81.5154C52.2467 82.7115 51.2378 83.6853 50.3143 84.4371C49.3908 85.1889 48.4845 85.7356 47.5952 86.0774C46.7059 86.4191 45.6969 86.59 44.5683 86.59Z" fill="#F5F2EE"/>
<path fill-rule="evenodd" clip-rule="evenodd" d="M41.2236 43.9609C38.9569 46.4088 37.1059 48.3681 35.6707 49.8387C34.2696 51.3085 33.0996 52.4308 32.1605 53.2057C31.2215 53.9806 30.4467 54.478 29.8363 54.698C29.2266 54.9521 28.597 55.0871 27.9473 55.1029C27.0241 55.1254 26.0121 55.0133 24.9113 54.7667C23.8447 54.5192 22.7422 54.2043 21.6038 53.8218C20.4988 53.4044 19.3592 52.9707 18.185 52.5208C17.0441 52.0358 15.9216 51.6017 14.8175 51.2184C13.7125 50.801 12.6608 50.4677 11.6626 50.2186C10.6985 49.9686 9.80618 49.8536 8.98556 49.8736C8.3701 49.8886 7.82469 49.9703 7.34933 50.1186C6.87314 50.2327 6.33231 50.5023 5.72685 50.9272C5.12056 51.318 4.3825 51.917 3.51267 52.7244C2.64202 53.4976 1.5049 54.5679 0.101339 55.9352L1.281e-05 55.9889L7.567 48.5238L20.8833 34.8172C18.7501 34.3222 16.601 33.8789 14.436 33.4873C12.3052 33.0949 10.2654 32.9224 8.31639 32.9699C7.70092 32.9849 7.13841 33.0669 6.62886 33.2161C6.11848 33.3311 5.61018 33.5314 5.10396 33.8172C4.59774 34.103 4.05942 34.475 3.48899 34.9333C2.91855 35.3916 2.26556 35.9715 1.53 36.673C4.62902 33.2819 7.20139 30.741 9.2471 29.0505C8.33142 27.9789 7.59754 26.6466 7.04546 25.0535C6.49339 23.4604 6.18858 21.4853 6.13105 19.1282C6.07685 16.9077 6.46882 14.7447 7.30697 12.6391C8.14511 10.5336 9.33101 8.6589 10.8647 7.01499C12.4317 5.33608 14.2977 3.9917 16.4627 2.98186C18.6268 1.93786 20.9911 1.38462 23.5555 1.32214C25.7438 1.26882 27.767 1.4588 29.6251 1.89208C31.4823 2.2912 33.2253 2.91528 34.854 3.76433C36.5169 4.61254 38.0656 5.68572 39.5 6.98387C40.9336 8.24786 42.3205 9.70098 43.6606 11.3432L47.9164 6.98391L54.674 -2.5597e-05L54.7265 0.0499671L49.9754 5.13919C49.9963 5.99323 50.0133 7.39427 50.0267 9.34232C50.0734 11.2554 50.1096 13.4421 50.1355 15.9026C50.1605 18.3289 50.1722 20.9094 50.1705 23.6439C50.2022 26.3435 50.1676 35.5673 50.1676 35.5673C50.1676 35.5673 47.6329 37.7966 46.1979 39.2205C44.604 40.8019 41.7661 43.2485 41.2236 43.9609ZM18.7555 25.4348C17.9316 25.3181 17.2119 25.2673 16.5964 25.2823C15.7074 25.304 14.6879 25.5852 13.5379 26.1259C12.4212 26.6317 11.0076 27.589 9.29714 28.998C8.58744 27.9556 7.99284 26.7225 7.51331 25.2985C7.06798 23.8737 6.82781 22.4439 6.79279 21.0091C6.75777 19.5744 6.92874 18.1687 7.3057 16.7923C7.68182 15.3816 8.30104 14.1189 9.16336 13.0041C10.059 11.8543 11.2166 10.9202 12.636 10.202C14.0554 9.4838 15.7909 9.0997 17.8424 9.04972C19.7572 9.00306 21.5569 9.14722 23.2415 9.48218C24.9253 9.78297 26.5461 10.3075 28.1039 11.0557C29.6609 11.7698 31.1558 12.7417 32.5885 13.9715C34.0204 15.1672 35.4419 16.6366 36.853 18.3797L27.9425 27.5695C26.8058 27.2554 25.6866 26.9579 24.5849 26.6771C23.5175 26.3955 22.485 26.1472 21.4876 25.9322C20.4902 25.7173 19.5795 25.5514 18.7555 25.4348ZM27.1768 36.1507C29.1016 36.514 30.8504 36.6765 32.4233 36.6382C32.7652 36.6299 33.1568 36.5519 33.5979 36.4045C34.0391 36.257 34.5791 35.9533 35.2179 35.4934C35.8909 35.0326 36.6965 34.3977 37.6347 33.5887C38.6063 32.7446 39.7768 31.6394 41.1461 30.2729L41.2199 43.8072C40.1849 44.8578 39.333 45.699 38.6642 46.3305C38.0287 46.9271 37.4925 47.3845 37.0555 47.7028C36.6185 48.0211 36.2303 48.2356 35.8909 48.3465C35.5506 48.4231 35.1924 48.466 34.8163 48.4752C33.6196 48.5043 32.2448 48.2473 30.6919 47.704C29.1391 47.1608 27.5337 46.5675 25.8758 45.9243C24.2171 45.2469 22.56 44.6378 20.9046 44.097C19.2492 43.5563 17.7376 43.3025 16.3699 43.3359C15.6519 43.3534 14.988 43.4892 14.3784 43.7433C13.7679 43.9633 13.0929 44.3386 12.3531 44.8694C11.6126 45.366 10.7565 46.0363 9.78493 46.8803C8.84755 47.7235 7.70961 48.7596 6.37109 49.9886L21.141 34.8622C23.2393 35.3238 25.2512 35.7533 27.1768 36.1507ZM41.1374 29.9142C40.8664 30.0234 40.5941 30.0813 40.3205 30.0879C39.6709 30.1038 38.8828 30.0546 37.9562 29.9405C37.0631 29.7913 36.0836 29.6101 35.0178 29.3968C33.9853 29.1485 32.8666 28.8681 31.6615 28.5556L28.1489 27.6158L41.0161 14.4328C41.0336 15.1502 41.0386 16.0559 41.0311 17.1499C41.0578 18.243 41.0707 19.4733 41.0699 20.8406C41.1032 22.207 41.1216 23.6593 41.1249 25.1974C41.1282 26.7355 41.1324 28.3078 41.1374 29.9142Z" fill="#F5F2EE"/>
</g>
</svg>
