<svg width="36" height="36" viewBox="0 0 36 36" fill="none" xmlns="http://www.w3.org/2000/svg">
<path d="M31.3748 12.3471C31.3009 12.3472 31.2277 12.3326 31.1594 12.3044C31.0911 12.2761 31.029 12.2346 30.9767 12.1824C30.9245 12.1301 30.883 12.068 30.8547 11.9997C30.8265 11.9314 30.8119 11.8582 30.812 11.7843L30.8125 5.98265L23.0221 13.773C22.9166 13.8785 22.7735 13.9378 22.6244 13.9378C22.4752 13.9378 22.3321 13.8785 22.2266 13.773C22.1211 13.6675 22.0619 13.5245 22.0619 13.3753C22.0619 13.2261 22.1211 13.083 22.2266 12.9775L30.017 5.18716L24.2153 5.18765C24.0661 5.18765 23.9229 5.12836 23.8174 5.02281C23.7118 4.91726 23.6525 4.77411 23.6525 4.62484C23.6525 4.47557 23.7118 4.33242 23.8174 4.22687C23.9229 4.12132 24.0661 4.06203 24.2153 4.06203L31.3748 4.06203C31.4487 4.06199 31.5219 4.07652 31.5902 4.10479C31.6585 4.13306 31.7206 4.17451 31.7729 4.22678C31.8251 4.27905 31.8666 4.34111 31.8949 4.40941C31.9231 4.47772 31.9377 4.55092 31.9376 4.62484L31.9376 11.7843C31.9377 11.8582 31.9231 11.9314 31.8949 11.9997C31.8666 12.068 31.8251 12.1301 31.7729 12.1824C31.7206 12.2346 31.6585 12.2761 31.5902 12.3044C31.5219 12.3326 31.4487 12.3472 31.3748 12.3471Z" fill="#E6E2DA"/>
<path d="M13.3748 30.3471C13.3009 30.3472 13.2277 30.3326 13.1594 30.3044C13.0911 30.2761 13.029 30.2346 12.9767 30.1824C12.9245 30.1301 12.883 30.068 12.8547 29.9997C12.8265 29.9314 12.8119 29.8582 12.812 29.7843L12.8125 23.9827L5.0221 31.773C4.91662 31.8785 4.77354 31.9378 4.62436 31.9378C4.47517 31.9378 4.3321 31.8785 4.22661 31.773C4.12112 31.6675 4.06186 31.5245 4.06186 31.3753C4.06186 31.2261 4.12112 31.083 4.22661 30.9775L12.017 23.1872L6.21535 23.1877C6.06608 23.1877 5.92293 23.1284 5.81738 23.0228C5.71183 22.9173 5.65253 22.7741 5.65253 22.6248C5.65253 22.4756 5.71183 22.3324 5.81738 22.2269C5.92293 22.1213 6.06608 22.062 6.21535 22.062L13.3748 22.062C13.4487 22.062 13.5219 22.0765 13.5902 22.1048C13.6585 22.1331 13.7206 22.1745 13.7729 22.2268C13.8251 22.2791 13.8666 22.3411 13.8949 22.4094C13.9231 22.4777 13.9377 22.5509 13.9376 22.6248L13.9376 29.7843C13.9377 29.8582 13.9231 29.9314 13.8949 29.9997C13.8666 30.068 13.8251 30.1301 13.7729 30.1824C13.7206 30.2346 13.6585 30.2761 13.5902 30.3044C13.5219 30.3326 13.4487 30.3472 13.3748 30.3471Z" fill="#E6E2DA"/>
</svg>
