<svg width="12" height="7" viewBox="0 0 12 7" fill="none" xmlns="http://www.w3.org/2000/svg">
<path d="M11.5324 0.907405L6.2199 6.2199C6.17057 6.2693 6.11198 6.30848 6.04748 6.33522C5.98299 6.36195 5.91386 6.37571 5.84405 6.37571C5.77423 6.37571 5.7051 6.36195 5.64061 6.33522C5.57612 6.30848 5.51752 6.2693 5.46819 6.2199L0.155686 0.907405C0.0560019 0.807721 0 0.67252 0 0.531545C0 0.390571 0.0560019 0.25537 0.155686 0.155686C0.25537 0.0560016 0.390571 0 0.531545 0C0.67252 0 0.807721 0.0560016 0.907405 0.155686L5.84405 5.09299L10.7807 0.155686C10.83 0.106327 10.8886 0.0671739 10.9531 0.0404612C11.0176 0.0137486 11.0867 0 11.1565 0C11.2263 0 11.2955 0.0137486 11.36 0.0404612C11.4244 0.0671739 11.483 0.106327 11.5324 0.155686C11.5818 0.205044 11.6209 0.263642 11.6476 0.328132C11.6743 0.392622 11.6881 0.461742 11.6881 0.531545C11.6881 0.601349 11.6743 0.670469 11.6476 0.734959C11.6209 0.799449 11.5818 0.858046 11.5324 0.907405Z" fill="#E6E2DA"/>
</svg>
