<svg width="105" height="70" viewBox="0 0 105 70" fill="none" xmlns="http://www.w3.org/2000/svg">
<path d="M22.7948 56.36C22.5814 56.36 22.3894 56.296 22.2188 56.168C22.0481 56.04 21.9628 55.7627 21.9628 55.336L21.3228 16.296C21.3228 15.9973 21.2161 15.848 21.0028 15.848C20.8321 15.848 20.7041 15.976 20.6188 16.232L11.2108 51.496C10.9121 52.6907 10.8908 53.608 11.1468 54.248C11.4454 54.8453 12.1068 55.2293 13.1308 55.4L13.8988 55.528C14.4108 55.5707 14.6667 55.8053 14.6667 56.232C14.6667 56.744 14.2614 57 13.4508 57H4.42675C3.78675 57 3.46675 56.7867 3.46675 56.36C3.46675 55.8907 3.80808 55.6133 4.49075 55.528L5.38675 55.4C6.53875 55.2293 7.39208 54.8453 7.94675 54.248C8.50142 53.608 8.92808 52.6907 9.22675 51.496L18.8908 15.144C19.1041 14.248 19.1041 13.6507 18.8908 13.352C18.6774 13.0533 18.1014 12.8187 17.1628 12.648L16.0748 12.456C15.3921 12.328 15.0508 12.0507 15.0508 11.624C15.0508 11.1547 15.4348 10.92 16.2028 10.92H23.8828C25.1201 10.92 25.7388 11.56 25.7388 12.84L26.1228 44.648C26.1228 44.9467 26.2081 45.1173 26.3788 45.16C26.5921 45.16 26.7628 45.032 26.8908 44.776L42.3787 12.52C42.8908 11.4533 43.7014 10.92 44.8108 10.92H52.5548C53.0668 10.92 53.3228 11.1333 53.3228 11.56C53.3228 11.9867 52.9601 12.264 52.2348 12.392L50.6988 12.648C49.7601 12.8187 49.1201 13.0533 48.7788 13.352C48.4374 13.6507 48.1601 14.248 47.9468 15.144L40.5228 52.776C40.3521 53.672 40.3521 54.2693 40.5228 54.568C40.7361 54.8667 41.2694 55.1013 42.1228 55.272L43.2108 55.464C43.6374 55.5067 43.9148 55.6133 44.0428 55.784C44.1708 55.912 44.2348 56.0613 44.2348 56.232C44.2348 56.744 43.8508 57 43.0828 57H31.6908C31.0934 57 30.7948 56.7867 30.7948 56.36C30.7948 55.9333 31.1361 55.656 31.8188 55.528L33.3548 55.272C34.2934 55.1013 34.9334 54.8667 35.2748 54.568C35.6588 54.2693 35.9361 53.672 36.1068 52.776L43.3388 16.488C43.4241 16.1893 43.3601 16.0187 43.1468 15.976C42.9334 15.8907 42.7628 15.976 42.6348 16.232L23.9468 55.336C23.7761 55.7627 23.5841 56.04 23.3708 56.168C23.2001 56.296 23.0081 56.36 22.7948 56.36Z" fill="#E6E2DA"/>
<g clip-path="url(#clip0_76_561)">
<path d="M67.3662 23.4167L75.9704 4.09141" stroke="#A6824A"/>
<path d="M62.6687 41.9443C61.8654 42.0715 61.1337 42.0119 60.4737 41.7654C59.8137 41.519 59.2645 41.12 58.8262 40.5684C58.401 40.0148 58.1248 39.3363 57.9976 38.533C57.8745 37.756 57.9112 37.0077 58.1077 36.2881C58.3174 35.5664 58.6471 34.9202 59.0967 34.3496C59.5594 33.7768 60.1099 33.3318 60.7482 33.0148C60.2718 32.5637 59.972 31.9497 59.849 31.1728C59.7405 30.488 59.7939 29.845 60.0092 29.2439C60.2377 28.6408 60.5902 28.1394 61.0669 27.74C61.5547 27.3252 62.1279 27.0657 62.7863 26.9614C63.2077 26.8947 63.6209 26.9035 64.0257 26.9878C64.4416 27.057 64.7935 27.1902 65.0812 27.3876C65.2927 27.5296 65.393 27.7365 65.382 28.0082L65.2857 30.9799C65.2775 31.1837 65.201 31.297 65.0561 31.32C64.8981 31.345 64.7947 31.2466 64.7461 31.0249L64.6607 30.6132C64.4349 29.5285 64.1614 28.782 63.8403 28.3739C63.517 27.9526 63.0723 27.7868 62.506 27.8765C62.0319 27.9516 61.6237 28.1445 61.2815 28.4552C60.9524 28.7638 60.7103 29.1531 60.5552 29.6232C60.4002 30.0932 60.3665 30.6048 60.4541 31.1579C60.5771 31.9349 60.8786 32.4744 61.3584 32.7764C61.5518 32.7187 61.7472 32.6743 61.9448 32.643C62.6427 32.5325 63.0188 32.6484 63.073 32.9908C63.1231 33.3068 62.8979 33.5045 62.3975 33.5838C61.9893 33.6484 61.5931 33.5762 61.209 33.367C59.6178 34.1455 58.9985 35.6476 59.351 37.8731C59.5429 39.0847 59.9564 39.9912 60.5917 40.5925C61.2248 41.1807 62.0023 41.4018 62.9242 41.2558C63.5826 41.1515 64.1492 40.8931 64.6238 40.4804C65.1116 40.0657 65.4707 39.5633 65.7013 38.9733C65.9297 38.3701 65.9908 37.7327 65.8844 37.0611C65.7217 36.0339 65.1531 35.5975 64.1786 35.7518C63.7967 35.8123 63.5063 35.9393 63.3075 36.1328C63.1197 36.311 63.0435 36.5121 63.079 36.736C63.1103 36.9335 63.197 37.0548 63.3391 37.0997C63.4812 37.1447 63.641 37.1734 63.8185 37.1858C63.9959 37.1982 64.1588 37.2467 64.3072 37.3311C64.4535 37.4025 64.5475 37.5698 64.5892 37.8332C64.6268 38.0703 64.5714 38.2748 64.4232 38.4467C64.2728 38.6056 64.0594 38.7069 63.7828 38.7507C63.4273 38.807 63.1233 38.7201 62.8708 38.4901C62.6184 38.2601 62.4578 37.9278 62.389 37.4932C62.3118 37.006 62.3899 36.5616 62.6233 36.1602C62.8567 35.7587 63.2045 35.4404 63.6668 35.2052C64.1422 34.9679 64.6845 34.855 65.2938 34.8665L65.9218 34.8682C66.7987 34.8644 67.21 34.6912 67.1558 34.3488C67.1307 34.1908 67.0406 34.0903 66.8853 34.0474C66.73 34.0045 66.556 33.9713 66.3633 33.9479C66.1685 33.9112 65.9903 33.8517 65.8288 33.7693C65.6651 33.6737 65.5645 33.5074 65.527 33.2703C65.4915 33.0465 65.5413 32.8496 65.6764 32.6797C65.8115 32.5098 66.0239 32.4019 66.3136 32.356C66.6956 32.2955 67.0138 32.3869 67.2683 32.6301C67.5207 32.8601 67.6824 33.199 67.7533 33.6467C67.843 34.213 67.7371 34.6955 67.4358 35.0942C67.1345 35.4929 66.7041 35.7163 66.1448 35.7644C66.2849 36.0527 66.3884 36.4075 66.4551 36.829C66.5886 37.6718 66.511 38.4603 66.2223 39.1945C65.9447 39.9135 65.5003 40.5171 64.8892 41.0053C64.278 41.4936 63.5379 41.8066 62.6687 41.9443Z" fill="#A6824A"/>
<path d="M48.689 65.3655L52.9911 55.7028L57.2932 46.0402" stroke="#A6824A"/>
</g>
<path d="M70.407 57C69.895 57 69.639 56.7867 69.639 56.36C69.639 55.976 69.9803 55.6987 70.663 55.528L71.687 55.336C72.5403 55.1653 73.287 54.76 73.927 54.12C74.5243 53.4373 75.1003 52.4987 75.655 51.304L94.791 11.304C95.0043 10.8773 95.2177 10.6 95.431 10.472C95.6443 10.344 95.8363 10.28 96.007 10.28C96.2203 10.28 96.391 10.344 96.519 10.472C96.6897 10.6 96.775 10.8773 96.775 11.304L97.479 51.88C97.5217 53.0747 97.671 53.9067 97.927 54.376C98.183 54.8027 98.7163 55.1227 99.527 55.336L100.359 55.528C100.871 55.656 101.127 55.912 101.127 56.296C101.127 56.7653 100.764 57 100.039 57H89.479C88.9243 57 88.647 56.7867 88.647 56.36C88.647 55.8907 89.0737 55.6133 89.927 55.528L91.207 55.4C91.9323 55.3147 92.423 55.08 92.679 54.696C92.9777 54.312 93.127 53.6507 93.127 52.712L92.999 42.792C92.999 41.6827 92.423 41.128 91.271 41.128H84.423C83.3137 41.128 82.4817 41.6827 81.927 42.792L77.767 51.368C76.615 53.8 76.999 55.144 78.919 55.4L79.815 55.528C80.455 55.6133 80.775 55.8693 80.775 56.296C80.775 56.7653 80.4123 57 79.687 57H70.407ZM84.679 39.208H91.847C92.5723 39.208 92.935 38.8453 92.935 38.12L92.807 20.648H92.487L84.103 38.12C83.9323 38.4187 83.911 38.6747 84.039 38.888C84.167 39.1013 84.3803 39.208 84.679 39.208Z" fill="#E6E2DA"/>
<defs>
<clipPath id="clip0_76_561">
<rect width="20.1182" height="67.0729" fill="white" transform="translate(66.7808) rotate(24)"/>
</clipPath>
</defs>
</svg>
