<svg width="2768" height="1278" viewBox="0 0 2768 1278" fill="none" xmlns="http://www.w3.org/2000/svg">
<path d="M401.447 0H410.519C412.558 4.1433 414.784 9.28048 418.13 12.3793C448.789 40.7784 474.776 29.6192 495.454 0H502.933C500.516 4.84037 498.054 9.98436 495.476 14.7126C506.732 38.7728 537.941 82.299 554.139 105.989C583.207 149.407 612.592 192.611 642.293 235.598L813.527 487.459C836.581 521.526 859.966 558.375 883.357 591.626C908.011 575.391 925.542 573.637 951.606 589.584L1290.45 85.7528C1302.94 67.2896 1326.2 34.8899 1335.6 15.6556C1332.57 9.96776 1330.5 6.06894 1328.12 0H1336.21C1342.73 12.7004 1350.65 21.3853 1364.71 25.8643C1376.21 29.4897 1388.68 28.3597 1399.34 22.7267C1409.61 17.3056 1415.22 10.0679 1420.34 0H1428.56C1426.76 5.45743 1424 13.0917 1422.85 18.5358C1434.22 38.8754 1457.96 70.9127 1471.32 90.8388L1576.66 246.837L1724.52 464.3L1780.54 547.164C1789.89 561.087 1799.69 576.999 1809.38 590.389C1832.93 579.759 1842.35 574.63 1867.81 584.235C1871.85 585.771 1875.87 587.343 1879.89 588.951C1902.95 549.463 1935.17 504.116 1961.18 465.558L2208.42 98.7596C2225.79 72.9146 2245.11 40.2467 2264.07 16.4352C2260.32 10.4436 2257.81 6.44215 2254.76 0H2263.28C2268.52 11.6079 2278.15 20.6677 2290.05 25.1992C2313.61 34.2484 2337.76 23.3623 2347 0H2357.06C2354.36 4.71005 2349.28 12.2002 2348.61 17.2771C2353.18 25.9415 2369.28 48.2691 2375.57 57.4852L2427.09 133.907C2493.04 232.235 2559.49 330.224 2626.44 427.872C2645.97 456.494 2665.96 486.062 2685.56 514.507C2697.26 531.491 2724.43 578.271 2738.2 590.669C2748.96 582.971 2754.68 581.35 2768 579.169V587.173C2754.93 589.122 2745.44 592.931 2737.14 604.123C2729.82 614.075 2726.75 626.525 2728.61 638.738C2731.87 659.185 2748.11 673.882 2768 677.865V687.418C2754.85 684.742 2750.9 681.978 2739.46 675.649C2700.06 737.494 2659.33 796.322 2618.08 856.891C2571.77 926.168 2524.82 995.014 2477.24 1063.42C2449.16 1104.14 2421.46 1144.13 2394.77 1185.76C2378.97 1210.4 2360.97 1231.63 2347.04 1258.37C2350.64 1264.24 2355.08 1271.27 2356.63 1278H2347.64C2343.87 1266.21 2333.85 1254.92 2322.38 1250.15C2311.21 1245.49 2298.64 1245.47 2287.45 1250.07C2274.09 1255.69 2266.96 1265 2261.53 1278H2253.76C2256.47 1270.65 2260.38 1263.1 2263.81 1256.02C2252.82 1241.27 2240.23 1220.58 2229.83 1204.92L2166.31 1110.2L1983.52 839.329L1917.28 740.482C1905.74 723.134 1888.26 694.129 1874.97 679.843C1848.23 691.722 1837.84 688.773 1812.31 676.376C1803.38 691.465 1791.49 708.566 1781.61 723.422C1762.36 752.372 1742.96 781.223 1723.42 809.973C1647.42 920.121 1572.09 1030.73 1497.43 1141.8C1471.18 1181.24 1444.78 1216.99 1420.11 1258.02C1424.97 1264.54 1427.54 1270.58 1430.4 1278H1420.77C1420.11 1276.64 1419.43 1275.28 1418.73 1273.94C1398.97 1236.4 1346.96 1238.21 1335.13 1278H1327.11C1329.24 1268.44 1331.87 1265.09 1337.06 1256.89C1326.1 1239.03 1314.17 1222.17 1302.57 1204.74L1246.08 1119.69L1060.73 844.767C1042.14 817.302 1022.69 789.811 1004.68 761.955C989.183 737.99 963.114 703.182 950.71 678.459C949.034 679.447 947.327 680.383 945.592 681.266C922.851 692.743 906.874 684.586 884.725 677.253C857.72 723.065 819.298 776.384 788.948 820.888L592.907 1108.62L531.77 1199.35C519.381 1217.82 505.087 1238.37 493.747 1257.33C497.793 1264.76 500.445 1269.78 502.689 1278H494.588C483.028 1239.51 426.311 1233.93 408.102 1278H400.143C402.143 1270.52 406.792 1261.6 410.45 1254.8C374.964 1208.09 337.395 1146.29 304.262 1097.14L222.644 975.626C192.646 932.683 163.047 889.462 133.851 845.97C109.801 808.934 85.3827 772.14 60.5988 735.592C49.375 718.73 34.6783 693.859 22.0731 679.309C13.8351 683.813 8.819 685.374 0 687.553V677.613C4.92477 676.472 9.51619 675.068 14.0079 672.675C24.6771 667.115 32.6471 657.48 36.1084 645.957C39.7173 634.096 38.3024 621.274 32.1941 610.486C24.5998 596.989 14.1729 591.5 0 587.515V579.451C9.43131 581.403 16.8413 584.799 25.5164 588.721C108.72 463.233 192.704 338.264 277.462 213.821L363.811 85.5297C378.93 62.9436 395.847 39.5761 409.399 16.2427C406.609 10.981 404.026 5.38579 401.447 0ZM958.733 594.387C978.259 625.199 978.297 645.639 955.613 674.813C973.735 697.192 991.814 727.991 1008.47 751.809C1025.27 775.827 1040.88 799.976 1057.11 824.247L1248.43 1106.22L1301.12 1184.99C1315.65 1206.99 1328.91 1227.95 1344.99 1248.95C1389.34 1222.66 1402.16 1251.22 1413.2 1249.14L1413.86 1248.37C1507.25 1109.18 1601.74 970.723 1697.32 833.024C1721.1 798.214 1744.6 763.201 1767.79 727.99C1778.48 712.032 1794.92 686.692 1806.6 672.042C1803.77 665.581 1800.04 658.734 1796.77 652.411C1785.77 631.135 1796.97 616.796 1803.01 596.265C1783.97 570.704 1765.79 540.72 1747.64 513.95L1481.49 123.408C1460.01 91.4871 1435.48 57.0796 1415.47 24.6469C1384.64 39.0176 1373.68 43.9334 1343.94 23.9891C1323.97 50.7252 1305.18 80.9084 1286.45 108.792L1180.95 264.838C1122.14 350.581 1063.91 436.716 1006.24 523.235C990.576 547.132 973.781 569.774 958.733 594.387ZM1884.09 594.72C1906.16 622.372 1903.66 646.947 1882.38 674.352C1911.27 714.95 1934.79 751.558 1962.13 792.399L2032.93 896.698L2271.2 1248.91C2315.21 1223.26 2331.34 1251.69 2340.46 1248.94L2341.38 1247.55C2387.59 1175.75 2439.77 1101.63 2488.43 1031.25L2612.12 850.591L2688.29 737.954C2702.37 716.939 2719.19 689.965 2734.89 670.878C2713.91 642.727 2715.1 627.604 2730.52 596.489C2718.42 582.213 2705.46 560.315 2694.87 544.407L2640.88 464.598L2346.95 31.9002C2345.38 29.5974 2343.88 27.1959 2341.25 26.5104C2334.22 27.3083 2328.86 32.0202 2322.98 34.1363C2309.01 39.1647 2294.61 37.0991 2281.5 30.5823C2278.66 29.1702 2272.22 25.4289 2270.1 24.5546C2256.07 42.6112 2241.95 65.1005 2229.21 84.405C2211.39 111.363 2193.4 138.217 2175.27 164.966L1969.13 469.513C1951.79 494.97 1934.61 520.527 1917.57 546.183C1907.83 560.826 1894.92 581.612 1884.09 594.72ZM912.192 587.993C887.529 591.957 870.735 615.144 874.658 639.814C878.581 664.483 901.74 681.316 926.416 677.434C951.15 673.543 968.031 650.317 964.099 625.59C960.167 600.862 936.913 584.02 912.192 587.993ZM1841.96 587.494C1825.71 589.045 1811.56 599.199 1804.88 614.086C1798.2 628.973 1800.03 646.299 1809.68 659.46C1819.32 672.621 1835.29 679.591 1851.49 677.712C1876.2 674.847 1894 652.618 1891.38 627.882C1888.77 603.145 1866.72 585.128 1841.96 587.494ZM416.664 24.4629C404.711 39.6226 393.771 57.1472 383.151 73.3601L345.604 130.07C311.657 181.481 275.031 234.758 240.196 285.726L109.437 479.19C92.4545 504.112 74.6437 528.654 58.2559 554.056C49.9919 566.865 39.1923 581.876 32.1802 595.256C51.1365 621.118 52.1677 650.205 28.7599 673.878C62.8837 722.095 95.7101 772.77 128.899 821.767L290.971 1061.03L371.41 1179.37C385.143 1199.56 405.563 1228.61 417.27 1249.19C464.658 1222.97 476.092 1250.96 486.145 1249L487.417 1247.57L767.266 837.422C789.817 804.817 812.145 772.059 834.248 739.15C846.958 720.025 867.568 686.602 881.309 670.89C862.808 644.017 860.296 626.627 877.345 597.69C840.626 545.313 807.792 494.262 772.136 441.993L601.677 193.148C579.789 160.73 557.003 127.832 535.453 95.2902L505.276 50.2304C502.652 46.256 492.555 27.9229 488.55 27.6481C479.402 27.0203 468.237 35.707 458.778 36.8608C442.975 39.5037 429.693 31.6655 416.664 24.4629Z" fill="#E6E0D9" fill-opacity="0.298039"/>
<path d="M1343.94 23.9891C1373.68 43.9334 1384.64 39.0176 1415.47 24.6469C1435.48 57.0796 1460.01 91.4871 1481.49 123.408L1747.64 513.95C1765.79 540.72 1783.97 570.704 1803.01 596.265C1796.97 616.796 1785.77 631.135 1796.77 652.411C1800.04 658.734 1803.77 665.581 1806.6 672.042C1794.92 686.692 1778.48 712.032 1767.79 727.99C1744.6 763.201 1721.1 798.214 1697.32 833.024C1601.74 970.723 1507.25 1109.18 1413.86 1248.37L1413.2 1249.14C1402.16 1251.22 1389.34 1222.66 1344.99 1248.95C1328.91 1227.95 1315.65 1206.99 1301.12 1184.99L1248.43 1106.22L1057.11 824.247C1040.88 799.976 1025.27 775.827 1008.47 751.809C991.814 727.991 973.735 697.192 955.613 674.813C978.297 645.639 978.259 625.199 958.733 594.387C973.781 569.774 990.576 547.132 1006.24 523.235C1063.91 436.716 1122.14 350.581 1180.95 264.838L1286.45 108.792C1305.18 80.9084 1323.97 50.7252 1343.94 23.9891ZM1373.98 1061.5L1379.09 1057.33C1401.83 1036.55 1412.68 1012.99 1428.71 987.082C1441.8 966.352 1455.05 945.72 1468.45 925.19C1531.49 828.399 1598.26 729.924 1657.85 631.253C1649.13 601.806 1617.84 562.44 1599.98 535.543C1578.53 502.93 1557.32 470.154 1536.36 437.218C1514.66 402.559 1495.14 363.577 1474.43 327.997C1449.53 286.14 1423.25 245.12 1395.63 205.004C1392.85 200.885 1379.64 180.224 1376.38 178.698C1366.76 189.83 1353.66 211.319 1345.59 224.248C1332.9 244.891 1320 265.407 1306.91 285.794C1259.37 359.935 1213.26 434.987 1168.62 510.91C1154.52 534.774 1140.58 558.739 1126.81 582.801C1119.65 595.277 1112.67 607.762 1105.65 620.31C1099.23 631.772 1101.3 641.609 1108.59 652.525C1136.22 693.926 1164.45 734.902 1191.85 776.481C1209.59 803.354 1226.91 830.497 1243.81 857.901C1250.83 869.333 1258.08 880.906 1264.79 892.498C1279.94 918.638 1298.37 942.3 1315.58 967.106C1336.55 997.329 1350.64 1033.12 1373.98 1061.5Z" fill="#1E2121" fill-opacity="0.298039"/>
<path d="M1376.38 178.698C1379.64 180.224 1392.85 200.885 1395.63 205.004C1423.25 245.12 1449.53 286.14 1474.43 327.997C1495.14 363.577 1514.66 402.559 1536.36 437.218C1557.32 470.154 1578.53 502.93 1599.98 535.543C1617.84 562.44 1649.13 601.806 1657.85 631.253C1598.26 729.924 1531.49 828.399 1468.45 925.19C1455.05 945.72 1441.8 966.352 1428.71 987.082C1412.68 1012.99 1401.83 1036.55 1379.09 1057.33L1373.98 1061.5C1350.64 1033.12 1336.55 997.329 1315.58 967.106C1298.37 942.3 1279.94 918.638 1264.79 892.498C1258.08 880.906 1250.83 869.333 1243.81 857.901C1226.91 830.497 1209.59 803.354 1191.85 776.481C1164.45 734.902 1136.22 693.926 1108.59 652.525C1101.3 641.609 1099.23 631.772 1105.65 620.31C1112.67 607.762 1119.65 595.277 1126.81 582.801C1140.58 558.739 1154.52 534.774 1168.62 510.91C1213.26 434.987 1259.37 359.935 1306.91 285.794C1320 265.407 1332.9 244.891 1345.59 224.248C1353.66 211.319 1366.76 189.83 1376.38 178.698ZM1388.49 708.926C1433.14 702.819 1464.35 661.629 1458.16 616.993C1451.96 572.357 1410.71 541.229 1366.08 547.516C1321.59 553.785 1290.57 594.895 1296.75 639.404C1302.93 683.913 1343.97 715.016 1388.49 708.926ZM1378.22 533.414C1387.13 535.885 1395.75 538.475 1405 539.359C1409.95 526.341 1413.27 514.847 1416.62 501.296C1428.98 448.973 1442.72 396.987 1457.84 345.395C1455.42 335.691 1451.81 328.673 1447.92 319.899C1440.66 303.555 1392.26 218.763 1382.33 212.563C1379.96 242.539 1380.58 274.905 1380.94 305.138C1381.85 380.739 1376.07 458.027 1378.22 533.414ZM1378.68 728.734C1382.29 772.798 1381.77 814.207 1381.84 858.351L1381 1030.03C1390.49 1020.38 1396.79 1010.76 1404.29 999.5C1421.51 973.762 1444.95 938.6 1459.22 911.118C1445.29 849.217 1427.46 788.586 1415.48 726.3C1414.94 723.496 1414.48 722.813 1412.43 721.021C1411.04 721.079 1409.62 721.068 1408.27 721.32C1397.74 722.978 1388.43 724.104 1378.68 728.734ZM1342.61 501.723C1345.06 511.794 1346.44 536.691 1358.11 537.626C1371.17 538.673 1369.92 524.096 1370.54 515.216C1371.26 488.223 1370.71 461.077 1371.11 434.021L1373.98 255.837C1374.12 246.814 1376.57 206.976 1374.7 201.813L1373.78 200.793C1368.34 207.779 1362.42 217.462 1357.87 225.177C1340.96 253.778 1320.51 283.229 1305.35 312.494C1300.81 321.266 1313.49 366.994 1316.32 379.97L1342.61 501.723ZM1129.73 638.488L1113.64 639.173C1131.77 663.492 1155.39 703.557 1174.41 724.67L1246.11 688.903C1260.85 681.141 1279.59 672.052 1292.51 661.978C1290.34 654.167 1288.91 647.238 1287.29 639.299C1235.11 639.104 1181.71 637.736 1129.73 638.488ZM1463.49 600.201C1465.25 608.38 1466.08 623.895 1473.71 628.676C1478.17 631.475 1510.72 628.051 1518.25 627.987C1558.15 626.832 1598.05 626.058 1637.96 625.666C1630.7 615.109 1584.47 539.22 1584.03 538.974C1550.21 559.282 1513.18 575.89 1477.46 592.605C1472.09 595.118 1468.37 596.693 1463.49 600.201ZM1581.67 723.21C1551.36 705.589 1516.19 693.766 1485.23 677.068C1480.65 674.598 1468.79 667.058 1464.32 666.977C1456.18 675.627 1442.79 691.74 1453.42 702.33C1481.75 730.54 1508.6 762.784 1537.07 790.522C1541.5 784.533 1545.82 778.777 1549.94 772.554L1581.67 723.21ZM1522.07 447.089C1515.87 435.309 1470.93 357.119 1464.07 351.492C1458.79 370.792 1453.42 391.161 1448.74 410.643C1438.19 454.616 1423.92 498.814 1413.61 542.683C1422.26 548.458 1430.85 553.999 1438.92 560.583L1451.88 541.366C1465.46 521.981 1479.53 502.947 1494.08 484.284C1499.55 477.241 1518.55 453.821 1522.07 447.089ZM1273.48 577.007C1280.46 580.799 1287.55 584.402 1294.73 587.812C1300.15 575.588 1310.18 565.826 1313.06 554.895C1307.35 545.699 1290.69 527.301 1283.01 517.76C1270.55 502.265 1258.28 486.613 1246.22 470.807C1242.52 465.911 1229.17 446.079 1224.57 444.4C1206.73 469.426 1188.61 499.948 1172.25 526.344C1204.73 542.76 1241.8 559.462 1273.48 577.007ZM1218.72 791.522C1223.07 797.976 1227.68 804.614 1231.89 811.129C1253.28 776.524 1289.03 731.234 1313.97 696.113C1311.31 692.128 1299.91 673.319 1296.51 672.897C1261.96 685.908 1214.07 713.782 1180.14 731.061C1191.81 752.06 1205.32 771.606 1218.72 791.522ZM1285.55 628.817C1286.39 622.672 1291.15 598.271 1289.15 596.941C1266.55 581.915 1223.25 562.7 1199.38 550.274C1184.78 542.671 1176.64 537.393 1167.95 534.316C1149.02 565.707 1131.23 597.495 1112.53 628.928C1152.26 630.527 1193.33 628.128 1233.75 628.976C1251.08 629.121 1268.23 629.364 1285.55 628.817ZM1303.82 527.447C1316.08 544.702 1322.53 559.106 1342.87 537.65C1332.18 509.191 1299.97 332.921 1294.62 326.688C1282.65 347.967 1270.3 369.024 1257.56 389.85C1252.85 397.488 1232.6 427.628 1231.79 433.732C1235.15 442.53 1259.04 470.266 1266.04 479.164C1278.57 495.084 1291.64 510.963 1303.82 527.447ZM1302.52 924.783C1310.39 941.654 1321.82 956.813 1332.26 972.235C1341.54 986.054 1350.39 1000.16 1358.79 1014.53C1363.67 1022.18 1369.78 1032.35 1375.08 1039.45C1372.09 1015.19 1373.96 985.098 1373.7 960.503L1372.54 789.723C1372.49 770.89 1373.79 752.169 1373.39 733.408C1373.13 721.065 1355.58 722.122 1347.38 718.848C1337.28 753.593 1330.73 792.2 1323.2 827.782C1316.43 859.753 1308.13 892.775 1302.52 924.783ZM1463 589.27C1470.17 585.26 1479.14 579.954 1486.41 576.548C1516.37 561.179 1549.07 545.738 1578.21 529.372C1567.38 514.009 1556.83 498.457 1546.54 482.723C1544.17 479.107 1530.4 457.58 1528.31 455.611C1513.34 477.394 1497.22 496.705 1480.91 517.361C1469.74 531.501 1453.64 551.599 1445.52 567.564C1451.15 576.124 1454.99 582.678 1463 589.27ZM1485.86 872.34C1497.53 854.558 1522.87 817.453 1530.01 799.685C1522.16 790.439 1442.51 702.82 1439.94 701.725C1433.28 707.067 1428.19 711.036 1421.1 715.755C1430.32 754.216 1439.77 792.622 1449.44 830.971C1454.91 853.392 1459.99 878.909 1466.53 900.73C1473.05 891.317 1479.49 881.853 1485.86 872.34ZM1496.21 638.559C1486.75 638.97 1476.7 639.233 1467.35 640.376C1467.09 643.494 1465.39 655.89 1466.01 657.716C1474.42 664.653 1491.06 669.905 1501.19 674.927C1526.69 687.565 1562.67 700.504 1586.62 715.254L1593.08 704.471C1607.29 682.209 1622.03 660.282 1637.27 638.707C1592.83 638.071 1540.4 636.757 1496.21 638.559ZM1279.43 894.485C1281.94 898.321 1290.8 913.145 1294.63 914.22C1298.29 910.842 1308.36 859.384 1310.25 850.935C1320.71 806 1330.43 760.898 1339.43 715.647C1335.54 712.672 1323.8 703.542 1319.52 702.605C1303.21 722.359 1286.67 748.479 1271.68 769.873C1260.54 785.776 1246.81 803.097 1236.41 818.671C1246.12 840.715 1266.72 873.883 1279.43 894.485Z" fill="#E6E0D9" fill-opacity="0.298039"/>
<path d="M1366.08 547.516C1410.71 541.229 1451.96 572.357 1458.16 616.993C1464.35 661.629 1433.14 702.819 1388.49 708.926C1343.97 715.016 1302.93 683.913 1296.75 639.404C1290.57 594.895 1321.59 553.785 1366.08 547.516Z" fill="#1E2121" fill-opacity="0.298039"/>
<path d="M1382.33 212.563C1392.26 218.763 1440.66 303.555 1447.92 319.899C1451.81 328.673 1455.42 335.691 1457.84 345.395C1442.72 396.987 1428.98 448.973 1416.62 501.296C1413.27 514.847 1409.95 526.341 1405 539.359C1395.75 538.475 1387.13 535.885 1378.22 533.414C1376.07 458.027 1381.85 380.739 1380.94 305.138C1380.58 274.905 1379.96 242.539 1382.33 212.563Z" fill="#1E2121" fill-opacity="0.298039"/>
<path d="M1408.27 721.32C1409.62 721.068 1411.04 721.079 1412.43 721.021C1414.48 722.813 1414.94 723.496 1415.48 726.3C1427.46 788.586 1445.29 849.217 1459.22 911.118C1444.95 938.6 1421.51 973.762 1404.29 999.5C1396.79 1010.76 1390.49 1020.38 1381 1030.03L1381.84 858.351C1381.77 814.207 1382.29 772.798 1378.68 728.734C1388.43 724.104 1397.74 722.978 1408.27 721.32Z" fill="#1E2121" fill-opacity="0.298039"/>
<path d="M1373.78 200.793L1374.7 201.813C1376.57 206.976 1374.12 246.814 1373.98 255.837L1371.11 434.021C1370.71 461.077 1371.26 488.223 1370.54 515.216C1369.92 524.096 1371.17 538.673 1358.11 537.626C1346.44 536.691 1345.06 511.794 1342.61 501.723L1316.32 379.97C1313.49 366.994 1300.81 321.266 1305.35 312.494C1320.51 283.229 1340.96 253.778 1357.87 225.177C1362.42 217.462 1368.34 207.779 1373.78 200.793Z" fill="#1E2121" fill-opacity="0.298039"/>
<path d="M1347.38 718.848C1355.58 722.122 1373.13 721.065 1373.39 733.408C1373.79 752.169 1372.49 770.89 1372.54 789.723L1373.7 960.503C1373.96 985.098 1372.09 1015.19 1375.08 1039.45C1369.78 1032.35 1363.67 1022.18 1358.79 1014.53C1350.39 1000.16 1341.54 986.054 1332.26 972.235C1321.82 956.813 1310.39 941.654 1302.52 924.783C1308.13 892.775 1316.43 859.753 1323.2 827.782C1330.73 792.2 1337.28 753.593 1347.38 718.848Z" fill="#1E2121" fill-opacity="0.298039"/>
<path d="M1294.62 326.688C1299.97 332.921 1332.18 509.191 1342.87 537.65C1322.53 559.106 1316.08 544.702 1303.82 527.447C1291.64 510.963 1278.57 495.084 1266.04 479.164C1259.04 470.266 1235.15 442.53 1231.79 433.732C1232.6 427.628 1252.85 397.488 1257.56 389.85C1270.3 369.024 1282.65 347.967 1294.62 326.688Z" fill="#1E2121" fill-opacity="0.298039"/>
<path d="M1167.95 534.316C1176.64 537.393 1184.78 542.671 1199.38 550.274C1223.25 562.7 1266.55 581.915 1289.15 596.941C1291.15 598.271 1286.39 622.672 1285.55 628.817C1268.23 629.364 1251.08 629.121 1233.75 628.976C1193.33 628.128 1152.26 630.527 1112.53 628.928C1131.23 597.495 1149.02 565.707 1167.95 534.316Z" fill="#1E2121" fill-opacity="0.298039"/>
<path d="M1464.07 351.492C1470.93 357.119 1515.87 435.309 1522.07 447.089C1518.55 453.821 1499.55 477.241 1494.08 484.284C1479.53 502.947 1465.46 521.981 1451.88 541.366L1438.92 560.583C1430.85 553.999 1422.26 548.458 1413.61 542.683C1423.92 498.814 1438.19 454.616 1448.74 410.643C1453.42 391.161 1458.79 370.792 1464.07 351.492Z" fill="#1E2121" fill-opacity="0.298039"/>
<path d="M1319.52 702.605C1323.8 703.542 1335.54 712.672 1339.43 715.647C1330.43 760.898 1320.71 806 1310.25 850.935C1308.36 859.384 1298.29 910.842 1294.63 914.22C1290.8 913.145 1281.94 898.321 1279.43 894.485C1266.72 873.883 1246.12 840.715 1236.41 818.671C1246.81 803.097 1260.54 785.776 1271.68 769.873C1286.67 748.479 1303.21 722.359 1319.52 702.605Z" fill="#1E2121" fill-opacity="0.298039"/>
<path d="M1439.94 701.725C1442.51 702.82 1522.16 790.439 1530.01 799.685C1522.87 817.453 1497.53 854.558 1485.86 872.34C1479.49 881.853 1473.05 891.317 1466.53 900.73C1459.99 878.909 1454.91 853.392 1449.44 830.971C1439.77 792.622 1430.32 754.216 1421.1 715.755C1428.19 711.036 1433.28 707.067 1439.94 701.725Z" fill="#1E2121" fill-opacity="0.298039"/>
<path d="M1129.73 638.488C1181.71 637.736 1235.11 639.104 1287.29 639.299C1288.91 647.238 1290.34 654.167 1292.51 661.978C1279.59 672.052 1260.85 681.141 1246.11 688.903L1174.41 724.67C1155.39 703.557 1131.77 663.492 1113.64 639.173L1129.73 638.488Z" fill="#1E2121" fill-opacity="0.298039"/>
<path d="M1584.03 538.974C1584.47 539.22 1630.7 615.109 1637.96 625.666C1598.05 626.058 1558.15 626.832 1518.25 627.987C1510.72 628.051 1478.17 631.475 1473.71 628.676C1466.08 623.895 1465.25 608.38 1463.49 600.201C1468.37 596.693 1472.09 595.118 1477.46 592.605C1513.18 575.89 1550.21 559.282 1584.03 538.974Z" fill="#1E2121" fill-opacity="0.298039"/>
<path d="M1224.57 444.4C1229.17 446.079 1242.52 465.911 1246.22 470.807C1258.28 486.613 1270.55 502.265 1283.01 517.76C1290.69 527.301 1307.35 545.699 1313.06 554.895C1310.18 565.826 1300.15 575.588 1294.73 587.812C1287.55 584.402 1280.46 580.799 1273.48 577.007C1241.8 559.462 1204.73 542.76 1172.25 526.344C1188.61 499.948 1206.73 469.426 1224.57 444.4Z" fill="#1E2121" fill-opacity="0.298039"/>
<path d="M1296.51 672.897C1299.91 673.319 1311.31 692.128 1313.97 696.113C1289.03 731.234 1253.28 776.524 1231.89 811.129C1227.68 804.614 1223.07 797.976 1218.72 791.522C1205.32 771.606 1191.81 752.06 1180.14 731.061C1214.07 713.782 1261.96 685.908 1296.51 672.897Z" fill="#1E2121" fill-opacity="0.298039"/>
<path d="M1528.31 455.611C1530.4 457.58 1544.17 479.107 1546.54 482.723C1556.83 498.457 1567.38 514.009 1578.21 529.372C1549.07 545.738 1516.37 561.179 1486.41 576.548C1479.14 579.954 1470.17 585.26 1463 589.27C1454.99 582.678 1451.15 576.124 1445.52 567.564C1453.64 551.599 1469.74 531.501 1480.91 517.361C1497.22 496.705 1513.34 477.394 1528.31 455.611Z" fill="#1E2121" fill-opacity="0.298039"/>
<path d="M1496.21 638.559C1540.4 636.757 1592.83 638.071 1637.27 638.707C1622.03 660.282 1607.29 682.209 1593.08 704.471L1586.62 715.254C1562.67 700.504 1526.69 687.565 1501.19 674.927C1491.06 669.905 1474.42 664.653 1466.01 657.716C1465.39 655.89 1467.09 643.494 1467.35 640.376C1476.7 639.233 1486.75 638.97 1496.21 638.559Z" fill="#1E2121" fill-opacity="0.298039"/>
<path d="M1464.32 666.977C1468.79 667.058 1480.65 674.598 1485.23 677.068C1516.19 693.766 1551.36 705.589 1581.67 723.21L1549.94 772.554C1545.82 778.777 1541.5 784.533 1537.07 790.522C1508.6 762.784 1481.75 730.54 1453.42 702.33C1442.79 691.74 1456.18 675.627 1464.32 666.977Z" fill="#1E2121" fill-opacity="0.298039"/>
<path d="M2270.1 24.5546C2272.22 25.4289 2278.66 29.1702 2281.5 30.5823C2294.61 37.0991 2309.01 39.1647 2322.98 34.1363C2328.86 32.0202 2334.22 27.3083 2341.25 26.5104C2343.88 27.1959 2345.38 29.5974 2346.95 31.9002L2640.88 464.598L2694.87 544.407C2705.46 560.315 2718.42 582.213 2730.52 596.489C2715.1 627.604 2713.91 642.727 2734.89 670.878C2719.19 689.965 2702.37 716.939 2688.29 737.954L2612.12 850.591L2488.43 1031.25C2439.77 1101.63 2387.59 1175.75 2341.38 1247.55L2340.46 1248.94C2331.34 1251.69 2315.21 1223.26 2271.2 1248.91L2032.93 896.698L1962.13 792.399C1934.79 751.558 1911.27 714.95 1882.38 674.352C1903.66 646.947 1906.16 622.372 1884.09 594.72C1894.92 581.612 1907.83 560.826 1917.57 546.183C1934.61 520.527 1951.79 494.97 1969.13 469.513L2175.27 164.966C2193.4 138.217 2211.39 111.363 2229.21 84.405C2241.95 65.1005 2256.07 42.6112 2270.1 24.5546ZM2026.22 631.721C2044.58 671.694 2069.94 705.127 2094.9 740.899C2148.67 817.975 2197.14 899.042 2248.71 977.624C2258.19 992.078 2290.36 1053.56 2301.38 1060.54C2303.68 1059.33 2303.91 1059.25 2305.72 1057.44C2330.43 1034.13 2342.66 1007.72 2360.48 979.327C2376.92 953.483 2393.52 927.743 2410.28 902.109L2515.51 740.027C2538.29 704.915 2564.68 666.069 2584.63 629.724C2574.4 599.841 2553.02 574.06 2535.28 548.375C2480.59 469.202 2433.12 387.481 2386.64 303.498C2378.35 288.518 2311.09 184.739 2302.05 178.76C2289.88 193.881 2277.48 215.714 2267.06 232.75C2253.75 254.399 2240.23 275.921 2226.5 297.312C2178.22 372.602 2131.39 448.813 2086.03 525.904C2066.89 558.614 2042.93 598.061 2026.22 631.721Z" fill="#1E2121" fill-opacity="0.298039"/>
<path d="M2302.05 178.76C2311.09 184.739 2378.35 288.518 2386.64 303.498C2433.12 387.481 2480.59 469.202 2535.28 548.375C2553.02 574.06 2574.4 599.841 2584.63 629.724C2564.68 666.069 2538.29 704.915 2515.51 740.027L2410.28 902.109C2393.52 927.743 2376.92 953.483 2360.48 979.327C2342.66 1007.72 2330.43 1034.13 2305.72 1057.44C2303.91 1059.25 2303.68 1059.33 2301.38 1060.54C2290.36 1053.56 2258.19 992.078 2248.71 977.624C2197.14 899.042 2148.67 817.975 2094.9 740.899C2069.94 705.127 2044.58 671.694 2026.22 631.721C2042.93 598.061 2066.89 558.614 2086.03 525.904C2131.39 448.813 2178.22 372.602 2226.5 297.312C2240.23 275.921 2253.75 254.399 2267.06 232.75C2277.48 215.714 2289.88 193.881 2302.05 178.76ZM2319.87 708.041C2364.24 699.332 2393.01 656.125 2383.93 611.828C2374.85 567.531 2331.4 539.126 2287.18 548.576C2243.48 557.915 2215.48 600.74 2224.46 644.517C2233.43 688.293 2276.02 716.649 2319.87 708.041ZM2333.17 539.19C2337.26 526.555 2339.5 513.993 2343.18 502.002C2355.73 449.264 2369.43 396.806 2384.26 344.664C2378.11 319.753 2326.21 229.278 2308.87 211.691L2307.63 392.777C2307.43 407.426 2303.73 525.597 2306.91 532.067C2313.09 537.584 2325.07 538.48 2333.17 539.19ZM2330.87 999.315C2347.69 974.469 2374.17 935.342 2385.95 908.499L2353.9 777.536C2351.62 768.007 2343.8 728.646 2340.38 722.246C2337.35 720.689 2338.7 720.98 2335.25 721.194C2325.92 723.342 2315.42 726.031 2305.95 726.615C2311.04 797.628 2306.26 874.226 2308.2 945.778C2308.78 966.882 2307.98 1008.35 2311.17 1028.02C2317.91 1018.47 2324.53 1009.15 2330.87 999.315ZM2229.41 319.525C2238.58 359.054 2247.36 398.674 2255.74 438.379C2260.01 458.488 2264.41 482.158 2269.35 501.816C2270.44 506.923 2271.82 512.772 2272.75 517.827C2275.74 533.98 2278.78 539.977 2295.91 534.751C2297.4 516.659 2296.79 500.158 2297.24 482.1C2298.41 440.95 2299.05 399.787 2299.16 358.62L2301.21 233.813C2301.35 226.913 2303.58 204.146 2301.44 199.729C2293.42 209.745 2275.49 238.687 2268.79 249.866C2259.3 265.694 2235.36 302.964 2229.41 319.525ZM2229.19 926.269C2244.65 952.416 2266.31 982.893 2283.12 1009.96C2289.07 1020.03 2293.1 1028.11 2301.17 1036.73C2298.8 1006.73 2300.8 977.947 2300.03 947.829C2298.12 873.633 2299.95 799.753 2300.09 725.641C2291.29 723.509 2282.14 721.442 2273.53 718.745C2257.79 787.712 2243.01 856.893 2229.19 926.269ZM2390.19 598.048C2392.25 608.57 2394.2 618.26 2395.25 628.976C2408.2 629.206 2425.83 629.419 2438.76 628.283L2518.92 626.218C2529 626.005 2551.77 627.581 2559.93 623.87C2562.56 619.24 2542.19 592.829 2538.92 587.281C2534.92 580.503 2515.63 541.593 2510.94 538.929C2487.13 552.978 2461 566.065 2436.14 578.202C2423.84 584.206 2402.78 594.442 2390.19 598.048ZM2391.13 352.613C2388.45 356.61 2378.69 400.487 2376.51 408.56L2355.15 486.888C2350.34 504.093 2343.95 524.977 2340.24 542.128C2348.77 547.859 2357.7 553.677 2365.92 559.776L2379.29 540.5C2393.05 521.376 2406.61 503.461 2420.99 484.881C2427.2 476.854 2445.36 453.781 2448.88 445.359C2447.44 442.126 2437.6 425.229 2435.2 422.627C2425.52 412.136 2398.32 356.317 2391.13 352.613ZM2463.31 790.08C2468.21 783.62 2472.59 777.699 2477.16 771.006C2486.75 756.447 2499.51 738.018 2507.12 722.619C2487.58 711.219 2457.72 699.171 2436.86 689.008C2428.3 684.833 2395.23 668.356 2388.3 666.212C2384.2 676.295 2378.75 686.383 2373.36 695.854C2400.84 723.737 2438.66 760.255 2463.31 790.08ZM2181.61 683.638C2194.38 677.208 2207 670.501 2219.48 663.521C2217.19 654.945 2215.13 647.488 2214.59 638.53C2185.03 640.308 2159.42 639.602 2129.87 639.203C2100.39 638.987 2070.92 638.585 2041.44 637.998C2052.32 657.883 2086.19 707.998 2101.4 724.545C2126.39 711.854 2157.52 697.109 2181.61 683.638ZM2387.5 589.732C2396.82 585.515 2404.82 581.693 2413.87 576.951C2443.68 561.273 2475.3 545.963 2504.59 530.096C2496.53 517.302 2464.21 465.342 2453.87 457.67C2445.01 468.711 2435.88 481.829 2427.01 493.345C2410.15 515.237 2385.65 543.353 2372.5 567.216L2387.5 589.732ZM2346.77 716.467C2357.11 752.734 2365.65 788.897 2374.6 825.508C2380.92 851.347 2387.89 874.098 2391.78 900.53C2399.34 891.83 2406.23 881.817 2412.57 872.171C2419.04 862.331 2454.3 809.727 2455.79 801.447C2451.86 792.863 2424.27 763.059 2417.09 755.814C2409.72 748.376 2373.29 706.162 2366.12 702.868C2360.19 707.303 2353.15 712.942 2346.77 716.467ZM2151.1 444.549C2132.84 471.342 2115.59 498.807 2099.37 526.886C2127.19 539.063 2174.72 562.672 2201.56 577.862C2207.82 580.914 2214.14 583.874 2220.49 586.743L2240.99 556.704C2232.96 545.523 2154.36 445.707 2151.1 444.549ZM2156.96 810.357C2184.67 776.191 2209.97 737.335 2236.7 702.135C2242.73 694.187 2229.72 678.551 2224.34 672.675C2223.67 672.451 2222.38 671.954 2221.75 671.9C2183.51 692.065 2144.79 713.279 2105.96 732.069C2119.16 750.798 2131.91 769.842 2144.19 789.185L2156.96 810.357ZM2391.48 659.677C2406.04 664.878 2420.71 671.515 2434.84 677.904C2459.03 689.324 2490.23 702.654 2513 714.621C2528.36 690.24 2546.73 663.387 2563.19 639.494L2562.48 638.55C2559.24 638.385 2557.43 638.347 2554.19 638.593C2501.59 640.359 2447.35 638.041 2394.42 638.994C2393.61 646.368 2392.77 652.368 2391.48 659.677ZM2215.75 594.84L2094.83 534.596C2077.89 562.16 2062.56 590.679 2046.01 618.476C2043.77 622.254 2041.6 626.06 2039.63 629.992C2080.24 628.686 2120.87 628.256 2161.5 628.701C2178.48 628.617 2195.47 628.78 2212.45 629.189C2215.29 617.517 2215.33 606.823 2215.75 594.84ZM2220.96 329.604C2214.09 338.156 2209.45 347.515 2203.57 356.549C2187.78 380.815 2173.27 410.53 2156.23 433.403C2180.26 463.688 2203.55 494.388 2227.92 524.659C2234.84 533.662 2241.18 541.821 2248.6 550.462C2255.62 547.564 2263.12 545.719 2266.37 538.985C2267.18 532.526 2225.74 335.135 2221.88 330.109L2220.96 329.604ZM2162.55 820.728C2176.05 845.669 2190.51 870.085 2205.87 893.924C2211.4 902.18 2215.88 908.868 2222.1 916.567C2230.7 879.903 2238.43 843.344 2246.18 806.506C2252.45 776.727 2260.28 746.608 2266.22 716.795C2260.24 709.472 2253.11 704.234 2243.26 704.016C2217.68 743.938 2187.04 781.599 2162.55 820.728Z" fill="#E6E0D9" fill-opacity="0.298039"/>
<path d="M2287.18 548.576C2331.4 539.126 2374.85 567.531 2383.93 611.828C2393.01 656.125 2364.24 699.332 2319.87 708.041C2276.02 716.649 2233.43 688.293 2224.46 644.517C2215.48 600.74 2243.48 557.915 2287.18 548.576Z" fill="#1E2121" fill-opacity="0.298039"/>
<path d="M2308.87 211.691C2326.21 229.278 2378.11 319.753 2384.26 344.664C2369.43 396.806 2355.73 449.264 2343.18 502.002C2339.5 513.993 2337.26 526.555 2333.17 539.19C2325.07 538.48 2313.09 537.584 2306.91 532.067C2303.73 525.597 2307.43 407.426 2307.63 392.777L2308.87 211.691Z" fill="#1E2121" fill-opacity="0.298039"/>
<path d="M2335.25 721.194C2338.7 720.98 2337.35 720.689 2340.38 722.246C2343.8 728.646 2351.62 768.007 2353.9 777.536L2385.95 908.499C2374.17 935.342 2347.69 974.469 2330.87 999.315C2324.53 1009.15 2317.91 1018.47 2311.17 1028.02C2307.98 1008.35 2308.78 966.882 2308.2 945.778C2306.26 874.226 2311.04 797.628 2305.95 726.615C2315.42 726.031 2325.92 723.342 2335.25 721.194Z" fill="#1E2121" fill-opacity="0.298039"/>
<path d="M2301.44 199.729C2303.58 204.146 2301.35 226.913 2301.21 233.813L2299.16 358.62C2299.05 399.787 2298.41 440.95 2297.24 482.1C2296.79 500.158 2297.4 516.659 2295.91 534.751C2278.78 539.977 2275.74 533.98 2272.75 517.827C2271.82 512.772 2270.44 506.923 2269.35 501.816C2264.41 482.158 2260.01 458.488 2255.74 438.379C2247.36 398.674 2238.58 359.054 2229.41 319.525C2235.36 302.964 2259.3 265.694 2268.79 249.866C2275.49 238.687 2293.42 209.745 2301.44 199.729Z" fill="#1E2121" fill-opacity="0.298039"/>
<path d="M2273.53 718.745C2282.14 721.442 2291.29 723.509 2300.09 725.641C2299.95 799.753 2298.12 873.633 2300.03 947.829C2300.8 977.947 2298.8 1006.73 2301.17 1036.73C2293.1 1028.11 2289.07 1020.03 2283.12 1009.96C2266.31 982.893 2244.65 952.416 2229.19 926.269C2243.01 856.893 2257.79 787.712 2273.53 718.745Z" fill="#1E2121" fill-opacity="0.298039"/>
<path d="M2220.96 329.604L2221.88 330.109C2225.74 335.135 2267.18 532.526 2266.37 538.985C2263.12 545.719 2255.62 547.564 2248.6 550.462C2241.18 541.821 2234.84 533.662 2227.92 524.659C2203.55 494.388 2180.26 463.688 2156.23 433.403C2173.27 410.53 2187.78 380.815 2203.57 356.549C2209.45 347.515 2214.09 338.156 2220.96 329.604Z" fill="#1E2121" fill-opacity="0.298039"/>
<path d="M2094.83 534.596L2215.75 594.84C2215.33 606.823 2215.29 617.517 2212.45 629.189C2195.47 628.78 2178.48 628.617 2161.5 628.701C2120.87 628.256 2080.24 628.686 2039.63 629.992C2041.6 626.06 2043.77 622.254 2046.01 618.476C2062.56 590.679 2077.89 562.16 2094.83 534.596Z" fill="#1E2121" fill-opacity="0.298039"/>
<path d="M2243.26 704.016C2253.11 704.234 2260.24 709.472 2266.22 716.795C2260.28 746.608 2252.45 776.727 2246.18 806.506C2238.43 843.344 2230.7 879.903 2222.1 916.567C2215.88 908.868 2211.4 902.18 2205.87 893.924C2190.51 870.085 2176.05 845.669 2162.55 820.728C2187.04 781.599 2217.68 743.938 2243.26 704.016Z" fill="#1E2121" fill-opacity="0.298039"/>
<path d="M2391.13 352.613C2398.32 356.317 2425.52 412.136 2435.2 422.627C2437.6 425.229 2447.44 442.126 2448.88 445.359C2445.36 453.781 2427.2 476.854 2420.99 484.881C2406.61 503.461 2393.05 521.376 2379.29 540.5L2365.92 559.776C2357.7 553.677 2348.77 547.859 2340.24 542.128C2343.95 524.977 2350.34 504.093 2355.15 486.888L2376.51 408.56C2378.69 400.487 2388.45 356.61 2391.13 352.613Z" fill="#1E2121" fill-opacity="0.298039"/>
<path d="M2366.12 702.868C2373.29 706.162 2409.72 748.376 2417.09 755.814C2424.27 763.059 2451.86 792.863 2455.79 801.447C2454.3 809.727 2419.04 862.331 2412.57 872.171C2406.23 881.817 2399.34 891.83 2391.78 900.53C2387.89 874.098 2380.92 851.347 2374.6 825.508C2365.65 788.897 2357.11 752.734 2346.77 716.467C2353.15 712.942 2360.19 707.303 2366.12 702.868Z" fill="#1E2121" fill-opacity="0.298039"/>
<path d="M2151.1 444.549C2154.36 445.707 2232.96 545.523 2240.99 556.704L2220.49 586.743C2214.14 583.874 2207.82 580.914 2201.56 577.862C2174.72 562.672 2127.19 539.063 2099.37 526.886C2115.59 498.807 2132.84 471.342 2151.1 444.549Z" fill="#1E2121" fill-opacity="0.298039"/>
<path d="M2510.94 538.929C2515.63 541.593 2534.92 580.503 2538.92 587.281C2542.19 592.829 2562.56 619.24 2559.93 623.87C2551.77 627.581 2529 626.005 2518.92 626.218L2438.76 628.283C2425.83 629.419 2408.2 629.206 2395.25 628.976C2394.2 618.26 2392.25 608.57 2390.19 598.048C2402.78 594.442 2423.84 584.206 2436.14 578.202C2461 566.065 2487.13 552.978 2510.94 538.929Z" fill="#1E2121" fill-opacity="0.298039"/>
<path d="M2041.44 637.998C2070.92 638.585 2100.39 638.987 2129.87 639.203C2159.42 639.602 2185.03 640.308 2214.59 638.53C2215.13 647.488 2217.19 654.945 2219.48 663.521C2207 670.501 2194.38 677.208 2181.61 683.638C2157.52 697.109 2126.39 711.854 2101.4 724.545C2086.19 707.998 2052.32 657.883 2041.44 637.998Z" fill="#1E2121" fill-opacity="0.298039"/>
<path d="M2221.75 671.9C2222.38 671.954 2223.67 672.451 2224.34 672.675C2229.72 678.551 2242.73 694.187 2236.7 702.135C2209.97 737.335 2184.67 776.191 2156.96 810.357L2144.19 789.185C2131.91 769.842 2119.16 750.798 2105.96 732.069C2144.79 713.279 2183.51 692.065 2221.75 671.9Z" fill="#1E2121" fill-opacity="0.298039"/>
<path d="M2453.87 457.67C2464.21 465.342 2496.53 517.302 2504.59 530.096C2475.3 545.963 2443.68 561.273 2413.87 576.951C2404.82 581.693 2396.82 585.515 2387.5 589.732L2372.5 567.216C2385.65 543.353 2410.15 515.237 2427.01 493.345C2435.88 481.829 2445.01 468.711 2453.87 457.67Z" fill="#1E2121" fill-opacity="0.298039"/>
<path d="M2554.19 638.593C2557.43 638.347 2559.24 638.385 2562.48 638.55L2563.19 639.494C2546.73 663.387 2528.36 690.24 2513 714.621C2490.23 702.654 2459.03 689.324 2434.84 677.904C2420.71 671.515 2406.04 664.878 2391.48 659.677C2392.77 652.368 2393.61 646.368 2394.42 638.994C2447.35 638.041 2501.59 640.359 2554.19 638.593Z" fill="#1E2121" fill-opacity="0.298039"/>
<path d="M2388.3 666.212C2395.23 668.356 2428.3 684.833 2436.86 689.008C2457.72 699.171 2487.58 711.219 2507.12 722.619C2499.51 738.018 2486.75 756.447 2477.16 771.006C2472.59 777.699 2468.21 783.62 2463.31 790.08C2438.66 760.255 2400.84 723.737 2373.36 695.854C2378.75 686.383 2384.2 676.295 2388.3 666.212Z" fill="#1E2121" fill-opacity="0.298039"/>
<path d="M416.664 24.4629C429.693 31.6655 442.975 39.5037 458.778 36.8608C468.237 35.707 479.402 27.0203 488.55 27.6481C492.555 27.9229 502.652 46.256 505.276 50.2304L535.453 95.2902C557.003 127.832 579.789 160.73 601.677 193.148L772.136 441.993C807.792 494.262 840.626 545.313 877.345 597.69C860.296 626.627 862.808 644.017 881.309 670.89C867.568 686.602 846.958 720.025 834.248 739.15C812.145 772.059 789.817 804.817 767.266 837.422L487.417 1247.57L486.145 1249C476.092 1250.96 464.658 1222.97 417.27 1249.19C405.563 1228.61 385.143 1199.56 371.41 1179.37L290.971 1061.03L128.899 821.767C95.7101 772.77 62.8837 722.095 28.7599 673.878C52.1677 650.205 51.1365 621.118 32.1802 595.256C39.1923 581.876 49.9919 566.865 58.2559 554.056C74.6437 528.654 92.4545 504.112 109.437 479.19L240.196 285.726C275.031 234.758 311.657 181.481 345.604 130.07L383.151 73.3601C393.771 57.1472 404.711 39.6226 416.664 24.4629ZM172.685 632.262C198.489 684.311 232.578 725.869 264.263 773.932C310.718 844.399 354.918 915.792 401.079 986.62C413.593 1005.82 428.125 1043.14 447.03 1058.18C448.227 1059.14 451.503 1057.98 452.904 1057.23C478.437 1030.46 489.65 1006.76 509.045 975.589C521.514 955.547 535.461 934.767 548.435 914.9L655.018 751.284C680.62 711.99 708.486 670.965 730.932 629.98C719.419 594.817 695.434 567.868 674.787 537.674C654.389 507.596 634.438 477.216 614.942 446.546C570.162 375.014 533.646 298.464 485.489 228.82C477.549 217.336 459.266 186.265 448.78 179.597C432.454 199.001 418.658 222.987 405.539 244.781C393.597 264.716 381.407 284.502 368.974 304.135C299.922 413.939 233.677 517.631 172.685 632.262Z" fill="#1E2121" fill-opacity="0.298039"/>
<path d="M448.78 179.597C459.266 186.265 477.549 217.336 485.489 228.82C533.646 298.464 570.162 375.014 614.942 446.546C634.438 477.216 654.389 507.596 674.787 537.674C695.434 567.868 719.419 594.817 730.932 629.98C708.486 670.965 680.62 711.99 655.018 751.284L548.435 914.9C535.461 934.767 521.514 955.547 509.045 975.589C489.65 1006.76 478.437 1030.46 452.904 1057.23C451.503 1057.98 448.227 1059.14 447.03 1058.18C428.125 1043.14 413.593 1005.82 401.079 986.62C354.918 915.792 310.718 844.399 264.263 773.932C232.578 725.869 198.489 684.311 172.685 632.262C233.677 517.631 299.922 413.939 368.974 304.135C381.407 284.502 393.597 264.716 405.539 244.781C418.658 222.987 432.454 199.001 448.78 179.597ZM464.528 708.332C508.89 700.641 538.561 658.372 530.72 614.036C522.879 569.7 480.51 540.172 436.201 548.162C392.103 556.115 362.746 598.239 370.55 642.363C378.353 686.487 420.377 715.987 464.528 708.332ZM451.967 534.241L479.622 539.776C481.132 534.161 488.731 508.616 489.254 504.732C492.669 489.968 496.816 475.584 500.55 460.914C510.692 421.076 519.096 381.026 532.118 341.973C527.999 330.216 513.553 302.88 506.659 292.139C500.116 281.943 461.509 214.665 457.278 212.487C452.389 274.864 452.966 355.619 452.077 419.016C451.473 444.511 451.094 470.011 450.941 495.512C450.913 506.691 450.587 523.368 451.967 534.241ZM452.841 726.172C455.701 765.387 455.1 804.516 455.41 843.828C455.899 905.683 454.566 967.172 456.064 1029.06C463.479 1019.59 469.52 1011.45 476.33 1001.55C496.092 972.257 514.837 942.287 532.531 911.696C526.133 880.277 518.05 851.538 510.369 820.596C502.303 787.526 494.75 754.333 487.713 721.028C487.3 720.827 486.018 720.141 485.636 720.087C472.94 724.076 466.207 725.6 452.841 726.172ZM375.246 318.784C384.149 353.909 392.404 389.196 400.005 424.626C405.411 450.465 409.846 476.864 415.433 502.586C416.663 507.683 417.878 513.652 419.273 518.46C420.986 524.363 421.146 532.706 426.262 536.453C429.327 538.698 439.347 538.579 441.106 533.487C447.188 478.4 444.488 420.992 445.126 365.507L447.242 243.905C447.463 232.442 449.929 210.737 449.569 201.606C448.983 201.213 448.178 200.582 447.571 200.389C426.903 232.798 391.745 285.512 375.246 318.784ZM375.423 927.197C393.646 954.899 411.722 982.698 429.651 1010.59C435.385 1019.27 441.184 1028.31 447.069 1036.86C446.988 933.191 445.055 830.365 447.139 726.669C436.368 723.021 431.145 720.719 419.594 720.958C413.516 741.444 405.595 783.073 400.992 805.158C393.321 841.959 380.543 890.721 375.423 927.197ZM299.123 443.67C284.518 460.58 257.282 506.722 246.038 527.043C280.838 542.763 310.915 558.31 344.421 575.804C351.914 579.609 360.31 583.641 367.622 587.626C374.135 575.003 378.915 568.241 387.62 556.947C378.732 543.808 368.046 531.298 358.166 518.813C338.437 493.883 317.826 469.385 299.123 443.67ZM360.4 638.28C334.333 641.022 309.928 639.304 283.896 639.227C251.864 639.133 220.45 638.954 188.427 637.846C196.326 653.352 235.644 712.16 247.489 724.155C257.762 719.98 267.785 713.961 277.701 708.908C294.018 700.594 310.823 691.578 327.481 684.004C356.354 669.663 370.387 672.995 360.4 638.28ZM368.574 917.419C377.645 876.005 385.937 834.994 395.396 793.514L406.138 746.686C412.508 718.996 418.704 717.667 394.179 701.924C380.657 717.339 368.174 736.599 356.275 753.628L309.398 819.74C322.951 845.188 337.453 870.12 352.873 894.483C357.841 901.956 363.187 910.361 368.574 917.419ZM538.185 657.746C577.501 680.418 619.488 693.845 659.676 714.421L670.629 697.69L710.518 638.2C660.65 639.349 610.891 637.267 561.189 638.528C541.556 638.921 541.561 638.292 538.185 657.746ZM252.999 732.801C266.517 750.935 279.29 770.879 291.478 789.947C295.622 796.51 300.407 803.736 304.301 810.362C330.285 776.567 362.964 730.918 387.089 695.737C384.347 691.717 371.535 672.337 368.966 670.925C345.433 683.636 321.781 696.124 298.012 708.387C285.199 715.028 264.281 725.087 252.999 732.801ZM536.276 666.202C531.117 675.943 525.875 686.27 520.045 695.57C550.368 726.893 580.451 758.448 610.29 790.233C614.295 784.398 618.544 778.391 622.427 772.505C633.193 756.217 643.862 739.865 654.433 723.449C618.068 703.077 574.711 684.093 536.276 666.202ZM364.159 596.281C325.103 575.131 281.553 555.192 241.567 534.392C228.531 555.971 215.688 577.665 203.037 599.472C197.963 608.105 189.655 620.801 185.329 629.31C226.946 629.074 269.753 628.259 311.25 628.862C324.535 629.042 337.842 629.224 351.096 630.036C362.142 630.713 362.207 604.737 364.159 596.281ZM710.619 625.924C700.104 609.807 690.032 593.407 680.412 576.742C676.545 569.987 662.809 543.46 658.797 539.03C639.666 550.26 619.975 560.507 599.801 569.731C590.257 574.208 545.147 594.35 539.532 599.217C537.684 607.44 541.231 620.646 542.982 629.34L589.75 628.725C630.023 627.168 670.317 626.234 710.619 625.924ZM651.555 529.103C645.449 520.707 603.635 458 601.074 456.647C590.429 471.304 579.704 486.469 568.717 500.834C553.077 521.282 529.239 544.553 519.283 568.108C535.803 594.167 535.707 589.718 560.522 575.85C590.672 559.801 621.687 545.282 651.555 529.103ZM604.253 801.454C591.582 786.839 521.498 704.916 511.859 702.803C506.018 707.385 499.737 712.132 494.022 716.803C503.212 754.203 512.596 791.554 522.174 828.857C528.073 852.409 533.418 877.437 540.563 900.526L560.218 870.569C574.107 848.728 589.854 822.521 604.253 801.454ZM596.57 447.369L560.078 386.898C556.216 380.458 542.229 354.937 537.153 352.391C529.275 383.631 521.091 414.793 512.602 445.872C505.632 470.603 491.946 517.17 487.342 542.508C495.531 548.211 504.344 554.139 511.653 560.944C516.541 554.305 522.003 547.178 526.636 540.435C548.526 508.37 571.862 477.316 596.57 447.369ZM368.419 328.769C350.799 353.802 316.504 408.064 303.388 435.466C329.216 465.074 350.736 495.101 374.922 525.655C381.457 534.285 388.211 543.062 395.735 550.875C403.248 547.113 410.342 544.271 415.598 537.624C407.536 512.973 401.678 483.105 396.461 457.521L377.962 367.369C376.82 361.876 371.745 330.859 368.419 328.769Z" fill="#E6E0D9" fill-opacity="0.298039"/>
<path d="M436.201 548.162C480.51 540.172 522.879 569.7 530.72 614.036C538.561 658.372 508.89 700.641 464.528 708.332C420.377 715.987 378.353 686.487 370.55 642.363C362.746 598.239 392.103 556.115 436.201 548.162Z" fill="#1E2121" fill-opacity="0.298039"/>
<path d="M457.278 212.487C461.509 214.665 500.116 281.943 506.659 292.139C513.553 302.88 527.999 330.216 532.118 341.973C519.096 381.026 510.692 421.076 500.55 460.914C496.816 475.584 492.669 489.968 489.254 504.732C488.731 508.616 481.132 534.161 479.622 539.776L451.967 534.241C450.587 523.368 450.913 506.691 450.941 495.512C451.094 470.011 451.473 444.511 452.077 419.016C452.966 355.619 452.389 274.864 457.278 212.487Z" fill="#1E2121" fill-opacity="0.298039"/>
<path d="M485.636 720.087C486.018 720.141 487.3 720.827 487.713 721.028C494.75 754.333 502.303 787.526 510.369 820.596C518.05 851.538 526.133 880.277 532.531 911.696C514.837 942.287 496.092 972.257 476.33 1001.55C469.52 1011.45 463.479 1019.59 456.064 1029.06C454.566 967.172 455.899 905.683 455.41 843.828C455.1 804.516 455.701 765.387 452.841 726.172C466.207 725.6 472.94 724.076 485.636 720.087Z" fill="#1E2121" fill-opacity="0.298039"/>
<path d="M447.571 200.389C448.178 200.582 448.983 201.213 449.569 201.606C449.929 210.737 447.463 232.442 447.242 243.905L445.126 365.507C444.488 420.992 447.188 478.4 441.106 533.487C439.347 538.579 429.327 538.698 426.262 536.453C421.146 532.706 420.986 524.363 419.273 518.46C417.878 513.652 416.663 507.683 415.433 502.586C409.846 476.864 405.411 450.465 400.005 424.626C392.404 389.196 384.149 353.909 375.246 318.784C391.745 285.512 426.903 232.798 447.571 200.389Z" fill="#1E2121" fill-opacity="0.298039"/>
<path d="M419.594 720.958C431.145 720.719 436.368 723.021 447.139 726.669C445.055 830.365 446.988 933.191 447.069 1036.86C441.184 1028.31 435.385 1019.27 429.651 1010.59C411.722 982.698 393.646 954.899 375.423 927.197C380.543 890.721 393.321 841.959 400.992 805.158C405.595 783.073 413.516 741.444 419.594 720.958Z" fill="#1E2121" fill-opacity="0.298039"/>
<path d="M368.419 328.769C371.745 330.859 376.82 361.876 377.962 367.369L396.461 457.521C401.678 483.105 407.536 512.973 415.598 537.624C410.342 544.271 403.248 547.113 395.735 550.875C388.211 543.062 381.457 534.285 374.922 525.655C350.736 495.101 329.216 465.074 303.388 435.466C316.504 408.064 350.799 353.802 368.419 328.769Z" fill="#1E2121" fill-opacity="0.298039"/>
<path d="M241.567 534.392C281.553 555.192 325.103 575.131 364.159 596.281C362.207 604.737 362.142 630.713 351.096 630.036C337.842 629.224 324.535 629.042 311.25 628.862C269.753 628.259 226.946 629.074 185.329 629.31C189.655 620.801 197.963 608.105 203.037 599.472C215.688 577.665 228.531 555.971 241.567 534.392Z" fill="#1E2121" fill-opacity="0.298039"/>
<path d="M537.153 352.391C542.229 354.937 556.216 380.458 560.078 386.898L596.57 447.369C571.862 477.316 548.526 508.37 526.636 540.435C522.003 547.178 516.541 554.305 511.653 560.944C504.344 554.139 495.531 548.211 487.342 542.508C491.946 517.17 505.632 470.603 512.602 445.872C521.091 414.793 529.275 383.631 537.153 352.391Z" fill="#1E2121" fill-opacity="0.298039"/>
<path d="M511.859 702.803C521.498 704.916 591.582 786.839 604.253 801.454C589.854 822.521 574.107 848.728 560.218 870.569L540.563 900.526C533.418 877.437 528.073 852.409 522.174 828.857C512.596 791.554 503.212 754.203 494.022 716.803C499.737 712.132 506.018 707.385 511.859 702.803Z" fill="#1E2121" fill-opacity="0.298039"/>
<path d="M394.179 701.924C418.704 717.667 412.508 718.996 406.138 746.686L395.396 793.514C385.937 834.994 377.645 876.005 368.574 917.419C363.187 910.361 357.841 901.956 352.873 894.483C337.453 870.12 322.951 845.188 309.398 819.74L356.275 753.628C368.174 736.599 380.657 717.339 394.179 701.924Z" fill="#1E2121" fill-opacity="0.298039"/>
<path d="M658.797 539.03C662.809 543.46 676.545 569.987 680.412 576.742C690.032 593.407 700.104 609.807 710.619 625.924C670.317 626.234 630.023 627.168 589.75 628.725L542.982 629.34C541.231 620.646 537.684 607.44 539.532 599.217C545.147 594.35 590.257 574.208 599.801 569.731C619.975 560.507 639.666 550.26 658.797 539.03Z" fill="#1E2121" fill-opacity="0.298039"/>
<path d="M299.123 443.67C317.826 469.385 338.437 493.883 358.166 518.813C368.046 531.298 378.732 543.808 387.62 556.947C378.915 568.241 374.135 575.003 367.622 587.626C360.31 583.641 351.914 579.609 344.421 575.804C310.915 558.31 280.838 542.763 246.038 527.043C257.282 506.722 284.518 460.58 299.123 443.67Z" fill="#1E2121" fill-opacity="0.298039"/>
<path d="M188.427 637.846C220.45 638.954 251.864 639.133 283.896 639.227C309.928 639.304 334.333 641.022 360.4 638.28C370.387 672.995 356.354 669.663 327.481 684.004C310.823 691.578 294.018 700.594 277.701 708.908C267.785 713.961 257.762 719.98 247.489 724.155C235.644 712.16 196.326 653.352 188.427 637.846Z" fill="#1E2121" fill-opacity="0.298039"/>
<path d="M368.966 670.925C371.535 672.337 384.347 691.717 387.089 695.737C362.964 730.918 330.285 776.567 304.301 810.362C300.407 803.736 295.622 796.51 291.478 789.947C279.29 770.879 266.517 750.935 252.999 732.801C264.281 725.087 285.199 715.028 298.012 708.387C321.781 696.124 345.433 683.636 368.966 670.925Z" fill="#1E2121" fill-opacity="0.298039"/>
<path d="M561.189 638.528C610.891 637.267 660.65 639.349 710.518 638.2L670.629 697.69L659.676 714.421C619.488 693.845 577.501 680.418 538.185 657.746C541.561 638.292 541.556 638.921 561.189 638.528Z" fill="#1E2121" fill-opacity="0.298039"/>
<path d="M601.074 456.647C603.635 458 645.449 520.707 651.555 529.103C621.687 545.282 590.672 559.801 560.522 575.85C535.707 589.718 535.803 594.167 519.283 568.108C529.239 544.553 553.077 521.282 568.717 500.834C579.704 486.469 590.429 471.304 601.074 456.647Z" fill="#1E2121" fill-opacity="0.298039"/>
<path d="M536.276 666.202C574.711 684.093 618.068 703.077 654.433 723.449C643.862 739.865 633.193 756.217 622.427 772.505C618.544 778.391 614.295 784.398 610.29 790.233C580.451 758.448 550.368 726.893 520.045 695.57C525.875 686.27 531.117 675.943 536.276 666.202Z" fill="#1E2121" fill-opacity="0.298039"/>
<path d="M1841.96 587.494C1866.72 585.128 1888.77 603.145 1891.38 627.882C1894 652.618 1876.2 674.847 1851.49 677.712C1835.29 679.591 1819.32 672.621 1809.68 659.46C1800.03 646.299 1798.2 628.973 1804.88 614.086C1811.56 599.199 1825.71 589.045 1841.96 587.494Z" fill="#1E2121" fill-opacity="0.298039"/>
<path d="M912.192 587.993C936.913 584.02 960.167 600.862 964.099 625.59C968.031 650.317 951.15 673.543 926.416 677.434C901.74 681.316 878.581 664.483 874.658 639.814C870.735 615.144 887.529 591.957 912.192 587.993Z" fill="#1E2121" fill-opacity="0.298039"/>
<path d="M884.725 677.253C906.874 684.586 922.851 692.743 945.592 681.266C947.327 680.383 949.034 679.447 950.71 678.459C963.114 703.182 989.183 737.99 1004.68 761.955C1022.69 789.811 1042.14 817.302 1060.73 844.767L1246.08 1119.69L1302.57 1204.74C1314.17 1222.17 1326.1 1239.03 1337.06 1256.89C1331.87 1265.09 1329.24 1268.44 1327.11 1278H1184.78C1174.18 1261.17 1161.4 1245.41 1150.3 1228.9C1141.03 1215.04 1132.51 1200.55 1123.31 1186.65C1096.71 1146.49 1069.71 1107.06 1047.87 1064.01C1038.31 1045.15 1026.89 1026.13 1016.19 1007.8C985.681 955.606 952.637 904.935 917.174 855.972C903.498 873.309 889.224 896.821 877.617 915.698C864.205 937.78 850.543 959.708 836.635 981.481C795.021 1046.91 754.429 1112.99 714.874 1179.69L679.06 1240.56C672.324 1252.13 663.705 1266.18 657.991 1278H502.689C500.445 1269.78 497.793 1264.76 493.747 1257.33C505.087 1238.37 519.381 1217.82 531.77 1199.35L592.907 1108.62L788.948 820.888C819.298 776.384 857.72 723.065 884.725 677.253Z" fill="#1E2121" fill-opacity="0.298039"/>
<path d="M1420.11 1258.02C1444.78 1216.99 1471.18 1181.24 1497.43 1141.8C1572.09 1030.73 1647.42 920.121 1723.42 809.973C1742.96 781.223 1762.36 752.372 1781.61 723.422C1791.49 708.566 1803.38 691.465 1812.31 676.376C1837.84 688.773 1848.23 691.722 1874.97 679.843C1888.26 694.129 1905.74 723.134 1917.28 740.482L1983.52 839.329L2166.31 1110.2L2229.83 1204.92C2240.23 1220.58 2252.82 1241.27 2263.81 1256.02C2260.38 1263.1 2256.47 1270.65 2253.76 1278H2110.93C2099.35 1260.2 2085.35 1242.78 2074.23 1224.97C2050.6 1187.11 2025.41 1150.12 2001.51 1112.51C1983.86 1084.73 1969.18 1053.76 1952.85 1025.03C1930.21 985.394 1906.15 946.587 1880.72 908.682C1870.06 892.492 1857.17 869.516 1842.86 857.217C1832.1 869.873 1819.67 891.06 1810.59 905.667L1765.79 977.724C1732.51 1030.08 1699.73 1082.75 1667.45 1135.73C1638.85 1182.87 1611.35 1230.6 1583.11 1278H1430.4C1427.54 1270.58 1424.97 1264.54 1420.11 1258.02Z" fill="#1E2121" fill-opacity="0.298039"/>
<path d="M502.933 0H639.765C667.1 53.136 692.387 85.9411 726.532 134.312C748.249 165.075 769.875 201.937 790.732 233.786C816.522 273.167 841.835 314.093 867.311 353.714C879.272 372.314 901.015 414.305 914.632 428.956C939.822 413.728 963.328 364.59 979.657 339.527C1001.2 306.462 1023.07 273.34 1044.78 240.374C1078.17 189.946 1111.14 139.245 1143.69 88.2763C1159.5 63.4197 1184.41 25.7704 1196.68 0H1328.12C1330.5 6.06894 1332.57 9.96776 1335.6 15.6556C1326.2 34.8899 1302.94 67.2896 1290.45 85.7528L951.606 589.584C925.542 573.637 908.011 575.391 883.357 591.626C859.966 558.375 836.581 521.526 813.527 487.459L642.293 235.598C612.592 192.611 583.207 149.407 554.139 105.989C537.941 82.299 506.732 38.7728 495.476 14.7126C498.054 9.98436 500.516 4.84037 502.933 0Z" fill="#1E2121" fill-opacity="0.298039"/>
<path d="M1428.56 0H1566.98C1594.17 59.1099 1636.96 108.844 1672.19 163.493L1788.73 344.813C1800.45 363.437 1828.66 416.441 1841.4 428.808C1864.54 415.353 1891.1 363.502 1906.4 339.425L1986.38 216.286C2016.95 170.046 2047.25 123.619 2077.26 77.0086C2092.41 53.4139 2111.85 24.443 2124.84 0H2254.76C2257.81 6.44215 2260.32 10.4436 2264.07 16.4352C2245.11 40.2467 2225.79 72.9146 2208.42 98.7596L1961.18 465.558C1935.17 504.116 1902.95 549.463 1879.89 588.951C1875.87 587.343 1871.85 585.771 1867.81 584.235C1842.35 574.63 1832.93 579.759 1809.38 590.389C1799.69 576.999 1789.89 561.087 1780.54 547.164L1724.52 464.3L1576.66 246.837L1471.32 90.8388C1457.96 70.9127 1434.22 38.8754 1422.85 18.5358C1424 13.0917 1426.76 5.45743 1428.56 0Z" fill="#1E2121" fill-opacity="0.298039"/>
<path d="M639.765 0H836.761C838.278 22.961 846.968 42.752 864.496 58.0516C881.113 72.511 902.864 79.6495 924.817 77.8488C946.58 76.0844 966.721 65.6496 980.714 48.8894C992.928 34.2784 998.13 18.7127 999.655 0H1196.68C1184.41 25.7704 1159.5 63.4197 1143.69 88.2763C1111.14 139.245 1078.17 189.946 1044.78 240.374C1023.07 273.34 1001.2 306.462 979.657 339.527C963.328 364.59 939.822 413.728 914.632 428.956C901.015 414.305 879.272 372.314 867.311 353.714C841.835 314.093 816.522 273.167 790.732 233.786C769.875 201.937 748.249 165.075 726.532 134.312C692.387 85.9411 667.1 53.136 639.765 0ZM942.864 371.67C958.831 347.724 987.128 305.475 999.644 279.477C994.633 251.802 984.857 217.329 978.3 188.976L963.88 126.48C961.382 115.653 958.942 104.57 956.187 93.8005C955.361 90.5731 955.612 91.1086 953.296 89.3366L952.249 89.3336C943.551 90.7548 926.845 92.417 920.925 98.6791C918.793 105.701 922.051 138.357 922.058 148.692C922.079 177.986 921.078 388.556 923.352 393.262C923.634 393.845 923.966 394.185 924.38 394.703C928.645 393.257 939.45 376.547 942.864 371.67ZM843.512 294.842C858.26 320.545 879.607 350.404 895.924 376.585C899.62 382.811 908.237 398.987 913.579 402.005C917.477 397.376 913.04 215.354 913.503 189.004C913.879 167.644 915.601 117.321 914.34 95.5419C904.619 90.65 898.909 88.598 887.79 89.1816C883.856 96.5371 873.878 150.836 871.432 162.236C862.033 206.047 850.959 250.81 843.512 294.842ZM758.283 158.852C762.859 165.529 767.559 172.609 772.295 179.13C775.904 174.665 779.31 170.133 782.548 165.39C805.722 131.446 831.038 99.1047 854.413 65.2993C851.741 60.0859 841.562 42.0267 836.614 39.9088C798.113 60.7497 758.92 79.7736 720.794 100.398L758.283 158.852ZM715.382 93.105L792.496 53.9892L833.257 33.1105C831.403 24.5636 830.082 16.9679 828.714 8.32379L719.715 7.83572C700.033 7.79794 674.449 7.26046 655.054 8.35073C669.636 29.6136 699.667 75.5748 715.382 93.105ZM1026.84 240.985C1042.26 217.433 1057.18 193.552 1071.57 169.358C1042.43 137.601 1010.88 100.76 980.576 70.8322C974.924 75.3526 967.099 81.9339 961.272 85.7216C979.429 146.851 990.668 208.252 1007.18 268.207C1014.06 259.373 1020.61 250.293 1026.84 240.985ZM1176.73 7.88161C1147.14 5.3264 1092.73 7.19687 1061.46 7.5C1043.83 7.88443 1026.19 7.93129 1008.56 7.64057C1007.7 13.4089 1005.84 21.8456 1007.42 27.1101C1009.89 29.505 1112.81 76.7063 1124.31 82.1322L1127.07 82.4399C1131.12 78.1218 1140.34 62.3105 1144.14 56.6658C1154.99 40.507 1165.63 23.8866 1176.73 7.88161ZM1090.1 141.286C1100.61 124.686 1111.36 108.232 1122.33 91.9267C1084.52 71.2222 1041.3 55.1799 1004.85 34.8251C997.952 44.1233 992.311 54.2884 988.069 65.0587C1015.64 93.3083 1050.59 133.184 1079.15 158.649L1090.1 141.286ZM880.665 84.4006C873.675 78.7135 868.692 74.0925 859.931 71.4338C833.281 108.166 804.592 152.111 777.048 186.654C784.183 206.988 808.528 244.043 820.813 263.512L834.939 285.396C841.649 264.556 847.189 241.075 851.246 219.475C859.743 174.237 871.601 129.424 880.665 84.4006Z" fill="#E6E0D9" fill-opacity="0.298039"/>
<path d="M952.249 89.3336L953.296 89.3366C955.612 91.1086 955.361 90.5731 956.187 93.8005C958.942 104.57 961.382 115.653 963.88 126.48L978.3 188.976C984.857 217.329 994.633 251.802 999.644 279.477C987.128 305.475 958.831 347.724 942.864 371.67C939.45 376.547 928.645 393.257 924.38 394.703C923.966 394.185 923.634 393.845 923.352 393.262C921.078 388.556 922.079 177.986 922.058 148.692C922.051 138.357 918.793 105.701 920.925 98.6791C926.845 92.417 943.551 90.7548 952.249 89.3336Z" fill="#1E2121" fill-opacity="0.298039"/>
<path d="M887.79 89.1816C898.909 88.598 904.619 90.65 914.34 95.5419C915.601 117.321 913.879 167.644 913.503 189.004C913.04 215.354 917.477 397.376 913.579 402.005C908.237 398.987 899.62 382.811 895.924 376.585C879.607 350.404 858.26 320.545 843.512 294.842C850.959 250.81 862.033 206.047 871.432 162.236C873.878 150.836 883.856 96.5371 887.79 89.1816Z" fill="#1E2121" fill-opacity="0.298039"/>
<path d="M859.931 71.4338C868.692 74.0925 873.675 78.7135 880.665 84.4006C871.601 129.424 859.743 174.237 851.246 219.475C847.189 241.075 841.649 264.556 834.939 285.396L820.813 263.512C808.528 244.043 784.183 206.988 777.048 186.654C804.592 152.111 833.281 108.166 859.931 71.4338Z" fill="#1E2121" fill-opacity="0.298039"/>
<path d="M980.576 70.8322C1010.88 100.76 1042.43 137.601 1071.57 169.358C1057.18 193.552 1042.26 217.433 1026.84 240.985C1020.61 250.293 1014.06 259.373 1007.18 268.207C990.668 208.252 979.429 146.851 961.272 85.7216C967.099 81.9339 974.924 75.3526 980.576 70.8322Z" fill="#1E2121" fill-opacity="0.298039"/>
<path d="M655.054 8.35073C674.449 7.26046 700.033 7.79794 719.715 7.83572L828.714 8.32379C830.082 16.9679 831.403 24.5636 833.257 33.1105L792.496 53.9892L715.382 93.105C699.667 75.5748 669.636 29.6136 655.054 8.35073Z" fill="#1E2121" fill-opacity="0.298039"/>
<path d="M836.614 39.9088C841.562 42.0267 851.741 60.0859 854.413 65.2993C831.038 99.1047 805.722 131.446 782.548 165.39C779.31 170.133 775.904 174.665 772.295 179.13C767.559 172.609 762.859 165.529 758.283 158.852L720.794 100.398C758.92 79.7736 798.113 60.7497 836.614 39.9088Z" fill="#1E2121" fill-opacity="0.298039"/>
<path d="M1061.46 7.5C1092.73 7.19687 1147.14 5.3264 1176.73 7.88161C1165.63 23.8866 1154.99 40.507 1144.14 56.6658C1140.34 62.3105 1131.12 78.1218 1127.07 82.4399L1124.31 82.1322C1112.81 76.7063 1009.89 29.505 1007.42 27.1101C1005.84 21.8456 1007.7 13.4089 1008.56 7.64057C1026.19 7.93129 1043.83 7.88443 1061.46 7.5Z" fill="#1E2121" fill-opacity="0.298039"/>
<path d="M1004.85 34.8251C1041.3 55.1799 1084.52 71.2222 1122.33 91.9267C1111.36 108.232 1100.61 124.686 1090.1 141.286L1079.15 158.649C1050.59 133.184 1015.64 93.3083 988.069 65.0587C992.311 54.2884 997.952 44.1233 1004.85 34.8251Z" fill="#1E2121" fill-opacity="0.298039"/>
<path d="M1566.98 0H1763.34C1765.68 24.5349 1773.75 43.8154 1793.38 59.8732C1810.18 73.5635 1831.74 79.9989 1853.29 77.7567C1874.9 75.5511 1894.73 64.82 1908.4 47.9413C1919.35 34.2902 1925.63 17.4864 1926.32 0H2124.84C2111.85 24.443 2092.41 53.4139 2077.26 77.0086C2047.25 123.619 2016.95 170.046 1986.38 216.286L1906.4 339.425C1891.1 363.502 1864.54 415.353 1841.4 428.808C1828.66 416.441 1800.45 363.437 1788.73 344.813L1672.19 163.493C1636.96 108.844 1594.17 59.1099 1566.98 0ZM1848.31 97.3701C1846.44 135.069 1848.77 186.557 1849 225.411C1849.14 259.798 1849.47 294.184 1849.99 328.568C1850.25 349.943 1850.14 375.461 1851.52 396.594C1859.35 386.49 1868.18 374.888 1874.84 363.988C1892.25 337.319 1909.64 309.619 1925.52 282.067C1927.86 277.99 1917.71 244.229 1916.09 238.002C1912.04 222.055 1908.23 206.052 1904.63 189.998C1897.79 159.787 1890.3 117.975 1881.76 89.4031C1878.28 89.6205 1872.53 89.7942 1869.26 90.2252C1860.95 91.8299 1855.67 93.0747 1848.31 97.3701ZM1769.56 294.38C1776.81 307.49 1786.75 320.92 1795.29 333.475C1805.27 348.187 1814.78 363.213 1823.81 378.53C1828.91 387.019 1834.87 397.57 1840.75 405.295C1841.22 336.161 1840.03 268.499 1839.87 199.544C1839.82 178.654 1839.95 157.765 1840.26 136.878C1840.37 129.901 1842.8 99.8142 1838.37 94.45C1834.92 90.269 1819.22 89.361 1812.92 88.7713C1809.13 113.297 1803.61 134.907 1798.7 158.962C1789.81 202.615 1780.85 251.361 1769.56 294.38ZM1703.14 187.807C1717.36 215.952 1731.2 237.134 1748.38 263.501C1753 271.135 1758.04 279.142 1762.44 286.85C1778.69 221.303 1791.85 151.288 1807.36 84.8725C1800.8 79.5779 1794.11 74.4593 1787.28 69.5223C1761.4 106.991 1731.2 152.884 1703.14 187.807ZM1763.37 39.9617C1725.51 59.8103 1684.38 79.9097 1647.22 99.9958C1660.92 120.4 1674.02 141.061 1687.54 161.541L1698.77 179.522C1725.87 141.655 1756.72 102.485 1782.11 64.1229C1779.39 60.3799 1765.97 41.1116 1763.37 39.9617ZM1913.87 64.297L2005.57 158.655L2017.15 140.925C2025.56 128.138 2042.49 103.616 2048.47 90.995C2013.26 72.8383 1962.95 54.0366 1930.57 33.4967C1925.58 42.914 1919.49 55.817 1913.87 64.297ZM1583.03 8.34036C1595.79 32.5439 1625.17 71.5618 1642.14 93.9651C1666.53 80.3344 1690.44 68.4587 1715.49 55.995C1728.34 49.4954 1749.04 39.6802 1760.64 31.868C1758.64 23.8993 1756.8 15.8881 1755.14 7.83989C1713.35 9.71526 1674.31 7.83427 1632.65 7.76573C1621.71 7.74772 1604.06 6.92052 1593.75 7.57636L1583.03 8.34036ZM1907.07 70.8281C1901.03 75.6622 1894.71 80.8932 1888.59 85.5634C1899.09 128.43 1910.49 170.977 1920.81 213.827C1924.71 230.026 1931.29 253.91 1932.94 269.581C1940.71 259.512 1947.41 249.649 1954.57 239.171C1969.91 216.231 1984.52 192.81 1998.37 168.942C1985.91 155.661 1916.6 75.9312 1907.07 70.8281ZM2103.48 6.9312C2073.97 6.91452 2044.46 7.39815 2014.96 8.38189C1992.28 8.92914 1959.09 9.55202 1936.67 6.9845C1935.14 13.4989 1933.03 21.4894 1932.32 28.0155C1977.1 44.1338 2012.32 63.8981 2053.9 83.4966C2060.06 72.8774 2065.61 64.365 2072.41 54.2339C2082.04 39.8366 2094.76 21.7398 2103.48 6.9312Z" fill="#E6E0D9" fill-opacity="0.298039"/>
<path d="M1869.26 90.2252C1872.53 89.7942 1878.28 89.6205 1881.76 89.4031C1890.3 117.975 1897.79 159.787 1904.63 189.998C1908.23 206.052 1912.04 222.055 1916.09 238.002C1917.71 244.229 1927.86 277.99 1925.52 282.067C1909.64 309.619 1892.25 337.319 1874.84 363.988C1868.18 374.888 1859.35 386.49 1851.52 396.594C1850.14 375.461 1850.25 349.943 1849.99 328.568C1849.47 294.184 1849.14 259.798 1849 225.411C1848.77 186.557 1846.44 135.069 1848.31 97.3701C1855.67 93.0747 1860.95 91.8299 1869.26 90.2252Z" fill="#1E2121" fill-opacity="0.298039"/>
<path d="M1812.92 88.7713C1819.22 89.361 1834.92 90.269 1838.37 94.45C1842.8 99.8142 1840.37 129.901 1840.26 136.878C1839.95 157.765 1839.82 178.654 1839.87 199.544C1840.03 268.499 1841.22 336.161 1840.75 405.295C1834.87 397.57 1828.91 387.019 1823.81 378.53C1814.78 363.213 1805.27 348.187 1795.29 333.475C1786.75 320.92 1776.81 307.49 1769.56 294.38C1780.85 251.361 1789.81 202.615 1798.7 158.962C1803.61 134.907 1809.13 113.297 1812.92 88.7713Z" fill="#1E2121" fill-opacity="0.298039"/>
<path d="M1787.28 69.5223C1794.11 74.4593 1800.8 79.5779 1807.36 84.8725C1791.85 151.288 1778.69 221.303 1762.44 286.85C1758.04 279.142 1753 271.135 1748.38 263.501C1731.2 237.134 1717.36 215.952 1703.14 187.807C1731.2 152.884 1761.4 106.991 1787.28 69.5223Z" fill="#1E2121" fill-opacity="0.298039"/>
<path d="M1907.07 70.8281C1916.6 75.9312 1985.91 155.661 1998.37 168.942C1984.52 192.81 1969.91 216.231 1954.57 239.171C1947.41 249.649 1940.71 259.512 1932.94 269.581C1931.29 253.91 1924.71 230.026 1920.81 213.827C1910.49 170.977 1899.09 128.43 1888.59 85.5634C1894.71 80.8932 1901.03 75.6622 1907.07 70.8281Z" fill="#1E2121" fill-opacity="0.298039"/>
<path d="M1593.75 7.57636C1604.06 6.92052 1621.71 7.74772 1632.65 7.76573C1674.31 7.83427 1713.35 9.71526 1755.14 7.83989C1756.8 15.8881 1758.64 23.8993 1760.64 31.868C1749.04 39.6802 1728.34 49.4954 1715.49 55.995C1690.44 68.4587 1666.53 80.3344 1642.14 93.9651C1625.17 71.5618 1595.79 32.5439 1583.03 8.34036L1593.75 7.57636Z" fill="#1E2121" fill-opacity="0.298039"/>
<path d="M1763.37 39.9617C1765.97 41.1116 1779.39 60.3799 1782.11 64.1229C1756.72 102.485 1725.87 141.655 1698.77 179.522L1687.54 161.541C1674.02 141.061 1660.92 120.4 1647.22 99.9958C1684.38 79.9097 1725.51 59.8103 1763.37 39.9617Z" fill="#1E2121" fill-opacity="0.298039"/>
<path d="M1936.67 6.9845C1959.09 9.55202 1992.28 8.92914 2014.96 8.38189C2044.46 7.39815 2073.97 6.91452 2103.48 6.9312C2094.76 21.7398 2082.04 39.8366 2072.41 54.2339C2065.61 64.365 2060.06 72.8774 2053.9 83.4966C2012.32 63.8981 1977.1 44.1338 1932.32 28.0155C1933.03 21.4894 1935.14 13.4989 1936.67 6.9845Z" fill="#1E2121" fill-opacity="0.298039"/>
<path d="M1930.57 33.4967C1962.95 54.0366 2013.26 72.8383 2048.47 90.995C2042.49 103.616 2025.56 128.138 2017.15 140.925L2005.57 158.655L1913.87 64.297C1919.49 55.817 1925.58 42.914 1930.57 33.4967Z" fill="#1E2121" fill-opacity="0.298039"/>
<path d="M917.174 855.972C952.637 904.935 985.681 955.606 1016.19 1007.8C1026.89 1026.13 1038.31 1045.15 1047.87 1064.01C1069.71 1107.06 1096.71 1146.49 1123.31 1186.65C1132.51 1200.55 1141.03 1215.04 1150.3 1228.9C1161.4 1245.41 1174.18 1261.17 1184.78 1278H1161.51C1150.53 1260.24 1136.41 1232.34 1125.5 1217.22C1100.5 1233.41 1071.51 1245.52 1044.66 1258.32C1034.9 1262.97 1013.13 1272.12 1005.61 1278H994.6C994.491 1277.69 994.383 1277.38 994.275 1277.07C986.649 1256.69 971.081 1240.27 951.133 1231.58C931.101 1222.85 908.419 1222.47 888.106 1230.52C865.12 1239.67 851.166 1255.76 841.714 1278H833.525C828.355 1269.81 781.217 1249.48 770.482 1244.05C750.104 1233.75 729.43 1222.72 709.256 1211.91C696.257 1233.1 683.373 1256.42 670.592 1278H657.991C663.705 1266.18 672.324 1252.13 679.06 1240.56L714.874 1179.69C754.429 1112.99 795.021 1046.91 836.635 981.481C850.543 959.708 864.205 937.78 877.617 915.698C889.224 896.821 903.498 873.309 917.174 855.972ZM918.955 1212.46C928.566 1214.34 938.222 1216.53 948.045 1216.43C951.243 1203.29 954.766 1190.23 958.613 1177.26C959.955 1171.75 960.99 1166.18 962.249 1160.66C973.214 1112.52 987.599 1065.27 999.5 1017.37C990.099 997.542 937.048 902.104 922.65 890.448C921.444 917.69 921.789 947.148 921.375 974.622L919.221 1136.29C918.997 1161.43 920.156 1187.48 918.955 1212.46ZM884.228 1181.76C885.2 1186.25 886.383 1191.38 887.229 1195.82C890.564 1213.32 890.778 1217.96 909.406 1214.6C912.763 1193.83 910.91 1156.62 911.357 1133.09C913.022 1065.93 914.08 998.75 914.53 931.566C914.647 924.418 917.426 882.687 914.517 879.736C903.824 892.7 893.56 913.045 884.546 927.748C870.913 949.983 851.867 973.67 843.35 998.182L884.228 1181.76ZM841.921 1202.64C848.445 1211.09 855.149 1220.04 861.936 1228.21C868.402 1225.91 876.482 1223.64 881.118 1218.69C882.597 1215.11 872.571 1174.51 870.921 1168.18C857.646 1117.34 852.074 1058.99 837.278 1009.05L835.519 1007.47C827.291 1018.54 814.905 1039.68 807.069 1052.4C796.971 1068.79 779.019 1096.22 770.975 1113.29C793.783 1137.97 820.789 1175.17 841.921 1202.64ZM954.386 1220.09C961.512 1226.45 970.931 1232.41 978.966 1237.81C985.232 1230.42 989.363 1225.48 994.699 1217.46C1011.35 1193.6 1044.18 1147.6 1063.8 1126.38C1058.69 1116.54 1011.51 1034.25 1006.11 1029.59C988.236 1089.83 973.677 1151.97 956.539 1212.52C955.802 1215.13 955.285 1217.52 954.386 1220.09ZM1068.72 1134.61C1042.13 1172.18 1013.06 1206.69 986.105 1244.31C991.322 1252.04 997.177 1260.37 1002 1268.28C1011.51 1264.1 1015.56 1262.35 1024.19 1256.32C1052.69 1240.16 1093.63 1223.8 1118.67 1207.92C1113.64 1200.22 1072.7 1137.29 1068.72 1134.61ZM714.343 1205.35C749.315 1222.36 781.414 1239.33 815.704 1256.51C822.634 1259.82 829.235 1263.04 836.371 1265.91C842.273 1251.97 846.388 1246.92 855.549 1234.64C849.817 1226.46 766.071 1121.73 765.97 1121.68C748.295 1147.74 729.347 1177.64 714.343 1205.35Z" fill="#E6E0D9" fill-opacity="0.298039"/>
<path d="M922.65 890.448C937.048 902.104 990.099 997.542 999.5 1017.37C987.599 1065.27 973.214 1112.52 962.249 1160.66C960.99 1166.18 959.955 1171.75 958.613 1177.26C954.766 1190.23 951.243 1203.29 948.045 1216.43C938.222 1216.53 928.566 1214.34 918.955 1212.46C920.156 1187.48 918.997 1161.43 919.221 1136.29L921.375 974.622C921.789 947.148 921.444 917.69 922.65 890.448Z" fill="#1E2121" fill-opacity="0.298039"/>
<path d="M914.517 879.736C917.426 882.687 914.647 924.418 914.53 931.566C914.08 998.75 913.022 1065.93 911.357 1133.09C910.91 1156.62 912.763 1193.83 909.406 1214.6C890.778 1217.96 890.564 1213.32 887.229 1195.82C886.383 1191.38 885.2 1186.25 884.228 1181.76L843.35 998.182C851.867 973.67 870.913 949.983 884.546 927.748C893.56 913.045 903.824 892.7 914.517 879.736Z" fill="#1E2121" fill-opacity="0.298039"/>
<path d="M835.519 1007.47L837.278 1009.05C852.074 1058.99 857.646 1117.34 870.921 1168.18C872.571 1174.51 882.597 1215.11 881.118 1218.69C876.482 1223.64 868.402 1225.91 861.936 1228.21C855.149 1220.04 848.445 1211.09 841.921 1202.64C820.789 1175.17 793.783 1137.97 770.975 1113.29C779.019 1096.22 796.971 1068.79 807.069 1052.4C814.905 1039.68 827.291 1018.54 835.519 1007.47Z" fill="#1E2121" fill-opacity="0.298039"/>
<path d="M1006.11 1029.59C1011.51 1034.25 1058.69 1116.54 1063.8 1126.38C1044.18 1147.6 1011.35 1193.6 994.699 1217.46C989.363 1225.48 985.232 1230.42 978.966 1237.81C970.931 1232.41 961.512 1226.45 954.386 1220.09C955.285 1217.52 955.802 1215.13 956.539 1212.52C973.677 1151.97 988.236 1089.83 1006.11 1029.59Z" fill="#1E2121" fill-opacity="0.298039"/>
<path d="M765.97 1121.68C766.071 1121.73 849.817 1226.46 855.549 1234.64C846.388 1246.92 842.273 1251.97 836.371 1265.91C829.235 1263.04 822.634 1259.82 815.704 1256.51C781.414 1239.33 749.315 1222.36 714.343 1205.35C729.347 1177.64 748.295 1147.74 765.97 1121.68Z" fill="#1E2121" fill-opacity="0.298039"/>
<path d="M1068.72 1134.61C1072.7 1137.29 1113.64 1200.22 1118.67 1207.92C1093.63 1223.8 1052.69 1240.16 1024.19 1256.32C1015.56 1262.35 1011.51 1264.1 1002 1268.28C997.177 1260.37 991.322 1252.04 986.105 1244.31C1013.06 1206.69 1042.13 1172.18 1068.72 1134.61Z" fill="#1E2121" fill-opacity="0.298039"/>
<path d="M1583.11 1278C1611.35 1230.6 1638.85 1182.87 1667.45 1135.73C1699.73 1082.75 1732.51 1030.08 1765.79 977.724L1810.59 905.667C1819.67 891.06 1832.1 869.873 1842.86 857.217C1857.17 869.516 1870.06 892.492 1880.72 908.682C1906.15 946.587 1930.21 985.394 1952.85 1025.03C1969.18 1053.76 1983.86 1084.73 2001.51 1112.51C2025.41 1150.12 2050.6 1187.11 2074.23 1224.97C2085.35 1242.78 2099.35 1260.2 2110.93 1278H2088.87C2078.22 1261.64 2063.3 1234.03 2053.55 1216.79C2013.26 1240.15 1970.57 1257.13 1929.73 1278H1920.76C1918.92 1273.86 1917.04 1269.73 1914.87 1265.79C1892.12 1224.49 1823.67 1209.19 1789.18 1244.4C1780.49 1253.26 1771.55 1265.85 1768.33 1278H1759.31C1758.39 1272.98 1745.07 1267.37 1740.22 1264.87C1705.52 1247.01 1669.85 1230.91 1635.42 1212.54L1597.06 1278H1583.11ZM1883.84 1180.58C1896.94 1128.01 1910.18 1072.34 1926.23 1020.71C1921.14 1003.22 1859.51 895.304 1850.18 891.364C1848.84 919.73 1848.98 949.122 1848.68 977.591C1848.04 1050.21 1846.39 1122.8 1845.39 1195.4C1845.34 1199.19 1844.31 1208.1 1847.18 1210.04C1880.61 1232.66 1879.3 1196.73 1883.84 1180.58ZM1842.55 875.68C1827.15 899.842 1811.96 924.143 1796.99 948.58C1789.98 960.097 1774.3 985.57 1769.99 997.393C1783.88 1058.42 1797.32 1119.54 1810.3 1180.76C1813.17 1194.62 1815.21 1203.7 1819.35 1217.12C1827.22 1215.31 1831.45 1214.5 1838.92 1211.23C1835.94 1177.91 1839.32 1134.82 1839.9 1100.96L1841.18 940.805C1841.34 931.477 1843.9 881.106 1842.55 875.68ZM1762.49 1006.74C1744.63 1027.92 1712.57 1086.73 1697.73 1113.03C1722.06 1140.7 1745.63 1173.68 1769.14 1202.57C1775.99 1211.56 1782.53 1220.25 1789.89 1228.86C1795.98 1226.34 1805.67 1223.79 1808.13 1217C1808.7 1215.41 1766.52 1013.6 1762.97 1007.41C1762.83 1007.17 1762.65 1006.96 1762.49 1006.74ZM1880.12 1221.11C1889.73 1226.18 1897.81 1230.6 1904.84 1239.33C1910.6 1233.13 1915.26 1226.41 1920.24 1219.57C1932.78 1201.98 1945.54 1184.54 1958.5 1167.26C1965.27 1158.3 1986.48 1132.3 1989.68 1124.68C1983.21 1113.38 1937.3 1033.91 1931.68 1029.61L1899.12 1153.51C1893.42 1174.74 1887.39 1200.7 1880.12 1221.11ZM1994.48 1134.47C1978.57 1158.51 1959.04 1181.43 1941.68 1204.53C1932.27 1217.05 1920.36 1231.78 1912.94 1245.45C1918.23 1253.24 1923.27 1261.31 1929.93 1268L1953.17 1256.04C1963.51 1250.73 1973.8 1245.18 1984.09 1239.73C2004.34 1229 2026.36 1219.72 2046.23 1208.48C2038.87 1197.78 2000.7 1138.49 1994.48 1134.47ZM1640.5 1204.3C1655.04 1211.42 1673.15 1219.48 1687 1227.01C1706.29 1237.5 1722.9 1246.6 1742.65 1256.37C1749.16 1259.38 1756.29 1262.87 1762.86 1265.57C1768.43 1253.14 1774.08 1245.8 1782.24 1234.76C1774.97 1224.89 1756.94 1202.49 1749.4 1193.41C1739.22 1181.14 1700.17 1127.95 1691.42 1121.47C1675.16 1148.44 1657.72 1178.03 1640.5 1204.3Z" fill="#E6E0D9" fill-opacity="0.298039"/>
<path d="M1850.18 891.364C1859.51 895.304 1921.14 1003.22 1926.23 1020.71C1910.18 1072.34 1896.94 1128.01 1883.84 1180.58C1879.3 1196.73 1880.61 1232.66 1847.18 1210.04C1844.31 1208.1 1845.34 1199.19 1845.39 1195.4C1846.39 1122.8 1848.04 1050.21 1848.68 977.591C1848.98 949.122 1848.84 919.73 1850.18 891.364Z" fill="#1E2121" fill-opacity="0.298039"/>
<path d="M1842.55 875.68C1843.9 881.106 1841.34 931.477 1841.18 940.805L1839.9 1100.96C1839.32 1134.82 1835.94 1177.91 1838.92 1211.23C1831.45 1214.5 1827.22 1215.31 1819.35 1217.12C1815.21 1203.7 1813.17 1194.62 1810.3 1180.76C1797.32 1119.54 1783.88 1058.42 1769.99 997.393C1774.3 985.57 1789.98 960.097 1796.99 948.58C1811.96 924.143 1827.15 899.842 1842.55 875.68Z" fill="#1E2121" fill-opacity="0.298039"/>
<path d="M1762.49 1006.74C1762.65 1006.96 1762.83 1007.17 1762.97 1007.41C1766.52 1013.6 1808.7 1215.41 1808.13 1217C1805.67 1223.79 1795.98 1226.34 1789.89 1228.86C1782.53 1220.25 1775.99 1211.56 1769.14 1202.57C1745.63 1173.68 1722.06 1140.7 1697.73 1113.03C1712.57 1086.73 1744.63 1027.92 1762.49 1006.74Z" fill="#1E2121" fill-opacity="0.298039"/>
<path d="M1931.68 1029.61C1937.3 1033.91 1983.21 1113.38 1989.68 1124.68C1986.48 1132.3 1965.27 1158.3 1958.5 1167.26C1945.54 1184.54 1932.78 1201.98 1920.24 1219.57C1915.26 1226.41 1910.6 1233.13 1904.84 1239.33C1897.81 1230.6 1889.73 1226.18 1880.12 1221.11C1887.39 1200.7 1893.42 1174.74 1899.12 1153.51L1931.68 1029.61Z" fill="#1E2121" fill-opacity="0.298039"/>
<path d="M1691.42 1121.47C1700.17 1127.95 1739.22 1181.14 1749.4 1193.41C1756.94 1202.49 1774.97 1224.89 1782.24 1234.76C1774.08 1245.8 1768.43 1253.14 1762.86 1265.57C1756.29 1262.87 1749.16 1259.38 1742.65 1256.37C1722.9 1246.6 1706.29 1237.5 1687 1227.01C1673.15 1219.48 1655.04 1211.42 1640.5 1204.3C1657.72 1178.03 1675.16 1148.44 1691.42 1121.47Z" fill="#1E2121" fill-opacity="0.298039"/>
<path d="M1994.48 1134.47C2000.7 1138.49 2038.87 1197.78 2046.23 1208.48C2026.36 1219.72 2004.34 1229 1984.09 1239.73C1973.8 1245.18 1963.51 1250.73 1953.17 1256.04L1929.93 1268C1923.27 1261.31 1918.23 1253.24 1912.94 1245.45C1920.36 1231.78 1932.27 1217.05 1941.68 1204.53C1959.04 1181.43 1978.57 1158.51 1994.48 1134.47Z" fill="#1E2121" fill-opacity="0.298039"/>
<path d="M2739.46 675.649C2750.9 681.978 2754.85 684.742 2768 687.418V858.811C2724.52 922.364 2683.32 993.19 2641.79 1059.04C2607.38 1112.54 2574.37 1166.92 2542.77 1222.12C2534.68 1236.31 2517.36 1264.11 2511.18 1278H2356.63C2355.08 1271.27 2350.64 1264.24 2347.04 1258.37C2360.97 1231.63 2378.97 1210.4 2394.77 1185.76C2421.46 1144.13 2449.16 1104.14 2477.24 1063.42C2524.82 995.014 2571.77 926.168 2618.08 856.891C2659.33 796.322 2700.06 737.494 2739.46 675.649Z" fill="#1E2121" fill-opacity="0.298039"/>
<path d="M0 687.553C8.819 685.374 13.8351 683.813 22.0731 679.309C34.6783 693.859 49.375 718.73 60.5988 735.592C85.3827 772.14 109.801 808.934 133.851 845.97C163.047 889.462 192.646 932.683 222.644 975.626L304.262 1097.14C337.395 1146.29 374.964 1208.09 410.45 1254.8C406.792 1261.6 402.143 1270.52 400.143 1278H257.845C246.314 1260.09 233.673 1243.93 222.208 1226.53C212.393 1211.92 204.002 1195.47 193.546 1181.36C155.304 1129.76 127.17 1074.05 95.2366 1018.5C66.2238 967.068 34.4311 917.252 0 869.275L0 687.553Z" fill="#1E2121" fill-opacity="0.298039"/>
<path d="M2357.06 0H2495.35C2496.31 9.86383 2500.79 16.6988 2505.76 25.0356C2533.4 71.4054 2566.87 114.057 2596.11 159.329L2717.91 348.385C2730.2 367.868 2753.85 414.822 2768 428.33V579.169C2754.68 581.35 2748.96 582.971 2738.2 590.669C2724.43 578.271 2697.26 531.491 2685.56 514.507C2665.96 486.062 2645.97 456.494 2626.44 427.872C2559.49 330.224 2493.04 232.235 2427.09 133.907L2375.57 57.4852C2369.28 48.2691 2353.18 25.9415 2348.61 17.2771C2349.28 12.2002 2354.36 4.71005 2357.06 0Z" fill="#1E2121" fill-opacity="0.298039"/>
<path d="M269.4 0H401.447C404.026 5.38579 406.609 10.981 409.399 16.2427C395.847 39.5761 378.93 62.9436 363.811 85.5297L277.462 213.821C192.704 338.264 108.72 463.233 25.5164 588.721C16.8413 584.799 9.43131 581.403 0 579.451V419.341C24.8713 389.092 40.8523 359.645 61.5431 326.824C80.3748 296.952 100.156 266.968 119.426 237.295L216.693 88.4553C231.684 65.0915 257.98 24.904 269.4 0Z" fill="#1E2121" fill-opacity="0.298039"/>
<path d="M2495.35 0H2690.95C2694.31 25.7159 2704.7 46.4562 2725.54 62.5839C2737.84 72.0303 2752.56 77.8111 2768 79.2607V94.5989C2760.77 92.2543 2749.5 87.5265 2741.86 89.6156C2739.36 90.2998 2739.22 94.9466 2738.35 97.0246C2732.57 125.142 2726.62 153.299 2720.44 181.314C2714.95 205.607 2709.69 229.953 2704.68 254.349C2702.69 264.247 2695.16 292.748 2700.09 299.951C2723.77 334.568 2744.66 371.484 2768 406.237V428.33C2753.85 414.822 2730.2 367.868 2717.91 348.385L2596.11 159.329C2566.87 114.057 2533.4 71.4054 2505.76 25.0356C2500.79 16.6988 2496.31 9.86383 2495.35 0ZM2689.04 39.8867C2650.42 61.1971 2613.42 79.8606 2574.17 99.654C2586.8 121.17 2599.86 140.75 2613.73 161.526L2625.69 178.899L2675.19 110.722C2686.64 94.9726 2697.72 80.5784 2708.46 64.3005C2705.16 59.5392 2693.41 41.5568 2689.04 39.8867ZM2568.32 93.2858C2594.59 80.999 2619.46 67.2942 2645.29 54.602C2658.93 47.5181 2672.6 40.5091 2686.32 33.5752C2685.49 24.8655 2683.86 16.2504 2681.45 7.83813C2645.64 8.53867 2609.82 8.64634 2574 8.16108C2553.72 7.89819 2530.53 6.61759 2510.88 6.88456C2510.5 15.7753 2559.75 82.2747 2568.32 93.2858ZM2673.19 262.435C2678.32 270.48 2683.26 278.397 2689.57 285.603C2701.21 239.87 2711 194.221 2720.33 147.977C2724.12 129.167 2730.91 105.084 2733 86.831C2727.97 78.4958 2723.1 73.512 2713.23 71.5799C2695.25 96.3568 2677.52 121.311 2660.04 146.44C2651.58 158.442 2639.87 176.091 2630.52 186.638C2639.31 206.013 2660.91 244.373 2673.19 262.435Z" fill="#E6E0D9" fill-opacity="0.298039"/>
<path d="M2713.23 71.5799C2723.1 73.512 2727.97 78.4958 2733 86.831C2730.91 105.084 2724.12 129.167 2720.33 147.977C2711 194.221 2701.21 239.87 2689.57 285.603C2683.26 278.397 2678.32 270.48 2673.19 262.435C2660.91 244.373 2639.31 206.013 2630.52 186.638C2639.87 176.091 2651.58 158.442 2660.04 146.44C2677.52 121.311 2695.25 96.3568 2713.23 71.5799Z" fill="#1E2121" fill-opacity="0.298039"/>
<path d="M2510.88 6.88456C2530.53 6.61759 2553.72 7.89819 2574 8.16108C2609.82 8.64634 2645.64 8.53867 2681.45 7.83813C2683.86 16.2504 2685.49 24.8655 2686.32 33.5752C2672.6 40.5091 2658.93 47.5181 2645.29 54.602C2619.46 67.2942 2594.59 80.999 2568.32 93.2858C2559.75 82.2747 2510.5 15.7753 2510.88 6.88456Z" fill="#1E2121" fill-opacity="0.298039"/>
<path d="M2689.04 39.8867C2693.41 41.5568 2705.16 59.5392 2708.46 64.3005C2697.72 80.5784 2686.64 94.9726 2675.19 110.722L2625.69 178.899L2613.73 161.526C2599.86 140.75 2586.8 121.17 2574.17 99.654C2613.42 79.8606 2650.42 61.1971 2689.04 39.8867Z" fill="#1E2121" fill-opacity="0.298039"/>
<path d="M72.2386 0H269.4C257.98 24.904 231.684 65.0915 216.693 88.4553L119.426 237.295C100.156 266.968 80.3748 296.952 61.5431 326.824C40.8523 359.645 24.8713 389.092 0 419.341V394.175C26.1992 357.755 50.6962 320.141 73.4122 281.453C68.7896 257.482 62.5122 234.917 56.8683 211.234L28.1647 88.3664C18.4701 90.2506 9.53233 91.9503 0 94.5055V80.1264C40.9192 75.9378 70.222 39.9518 72.2386 0ZM34.6801 85.5093C45.0502 123.563 54.897 161.757 64.2176 200.081C69.2311 220.91 74.3318 248.665 81.0222 268.512C86.8122 261.349 94.2477 249.485 99.5469 241.539C113.852 219.98 134.055 190.928 144.763 168.315C134.37 157.276 59.4712 73.7742 54.1264 70.9109L34.6801 85.5093ZM77.1231 34.7244C71.6521 44.4603 66.0656 54.1308 60.3648 63.7339C90.3701 96.2469 121.759 125.784 151.524 158.708L162.047 142.952C169.618 131.394 189.352 102.624 195.093 90.7162L77.1231 34.7244ZM214.189 7.54567C170.94 8.9211 126.353 8.26119 83.0827 7.73458C80.7395 15.5599 80.1938 20.0307 79.1012 28.0985C92.37 32.088 127.923 49.3435 142.5 55.9323C160.419 64.0165 182.332 73.3637 199.074 83.2931C216.394 61.2911 235.319 30.5796 251.113 6.73962L214.189 7.54567Z" fill="#E6E0D9" fill-opacity="0.298039"/>
<path d="M54.1264 70.9109C59.4712 73.7742 134.37 157.276 144.763 168.315C134.055 190.928 113.852 219.98 99.5469 241.539C94.2477 249.485 86.8122 261.349 81.0222 268.512C74.3318 248.665 69.2311 220.91 64.2176 200.081C54.897 161.757 45.0502 123.563 34.6801 85.5093L54.1264 70.9109Z" fill="#1E2121" fill-opacity="0.298039"/>
<path d="M214.189 7.54567L251.113 6.73962C235.319 30.5796 216.394 61.2911 199.074 83.2931C182.332 73.3637 160.419 64.0165 142.5 55.9323C127.923 49.3435 92.37 32.088 79.1012 28.0985C80.1938 20.0307 80.7395 15.5599 83.0827 7.73458C126.353 8.26119 170.94 8.9211 214.189 7.54567Z" fill="#1E2121" fill-opacity="0.298039"/>
<path d="M77.1231 34.7244L195.093 90.7162C189.352 102.624 169.618 131.394 162.047 142.952L151.524 158.708C121.759 125.784 90.3701 96.2469 60.3648 63.7339C66.0656 54.1308 71.6521 44.4603 77.1231 34.7244Z" fill="#1E2121" fill-opacity="0.298039"/>
<path d="M2511.18 1278C2517.36 1264.11 2534.68 1236.31 2542.77 1222.12C2574.37 1166.92 2607.38 1112.54 2641.79 1059.04C2683.32 993.19 2724.52 922.364 2768 858.811V877.99C2755.25 898.247 2743.14 918.578 2730.66 938.956C2718.59 958.65 2706.04 977.394 2695.16 997.907C2702.6 1016.49 2706.88 1038.98 2711.07 1058.72L2730.27 1149.65C2734.95 1171.93 2739.05 1195.63 2746.73 1217C2753.94 1215.54 2758.9 1214.46 2765.41 1210.83C2763.25 1164.86 2765.5 1114.55 2765.89 1068.02C2765.94 1047.85 2766.19 1027.68 2766.64 1007.51C2766.82 999.692 2766.76 985.588 2768 978.494V1225.21C2729.31 1223.93 2709.41 1244.56 2694.59 1278H2685.96C2682.57 1269.9 2577.93 1220.13 2562.3 1212.07C2551.09 1233.14 2536.52 1257.46 2524.28 1278H2511.18ZM2624.96 1114.3C2649.36 1142.41 2675.12 1175.91 2698.16 1205.32L2715.86 1229.01C2721.11 1226.82 2732.7 1222.98 2735.06 1218.35C2734.08 1201.1 2727.26 1182.08 2723.61 1164.9L2699.17 1048.91C2697.67 1041.94 2692.49 1014.1 2690.39 1010.01L2688.5 1008.48C2681.16 1014.77 2628.78 1103.38 2624.96 1114.3ZM2567.65 1205.5C2601.73 1221.06 2635.97 1239.69 2669.7 1256.51C2676.18 1259.6 2683.36 1263.23 2689.97 1265.85C2694.37 1254.4 2701.3 1244.51 2709.04 1235.03C2694.07 1210.61 2666.29 1180.89 2648.3 1157.27C2644.02 1151.66 2626.08 1128.41 2621.82 1124.06L2618.41 1123.64C2606.83 1138.71 2575.43 1188.8 2567.65 1205.5Z" fill="#E6E0D9" fill-opacity="0.298039"/>
<path d="M2688.5 1008.48L2690.39 1010.01C2692.49 1014.1 2697.67 1041.94 2699.17 1048.91L2723.61 1164.9C2727.26 1182.08 2734.08 1201.1 2735.06 1218.35C2732.7 1222.98 2721.11 1226.82 2715.86 1229.01L2698.16 1205.32C2675.12 1175.91 2649.36 1142.41 2624.96 1114.3C2628.78 1103.38 2681.16 1014.77 2688.5 1008.48Z" fill="#1E2121" fill-opacity="0.298039"/>
<path d="M2618.41 1123.64L2621.82 1124.06C2626.08 1128.41 2644.02 1151.66 2648.3 1157.27C2666.29 1180.89 2694.07 1210.61 2709.04 1235.03C2701.3 1244.51 2694.37 1254.4 2689.97 1265.85C2683.36 1263.23 2676.18 1259.6 2669.7 1256.51C2635.97 1239.69 2601.73 1221.06 2567.65 1205.5C2575.43 1188.8 2606.83 1138.71 2618.41 1123.64Z" fill="#1E2121" fill-opacity="0.298039"/>
<path d="M0 869.275C34.4311 917.252 66.2238 967.068 95.2366 1018.5C127.17 1074.05 155.304 1129.76 193.546 1181.36C204.002 1195.47 212.393 1211.92 222.208 1226.53C233.673 1243.93 246.314 1260.09 257.845 1278H234.66C224.251 1260.84 209.947 1232.24 199.326 1217.27C161.222 1238.33 122.201 1256.49 82.7028 1274.63C80.8643 1275.48 79.9261 1276.4 78.6741 1278H66.5877C51.7751 1243.58 36.3121 1233.19 0 1226.22V1213.48C6.08695 1214.3 14.445 1216.37 20.6094 1217.69C26.0232 1199.15 30.4859 1179.63 35.3206 1160.78C46.8786 1115.72 59.9374 1071.07 70.8363 1025.83C74.7975 1009.39 40.2962 958.567 31.1688 943.306C21.9091 927.824 10.1822 908.339 0 893.847L0 869.275ZM27.4697 1220.49C36.4731 1226.97 43.5813 1232.35 53.4667 1237.54C58.7164 1230.64 63.7742 1223.59 68.6342 1216.41C89.2666 1187.4 115.108 1153.84 137.59 1126.08C131.7 1115.36 83.5815 1033.85 78.1908 1029.56L43.9596 1159.73C38.8546 1178.71 33.1761 1202.13 27.4697 1220.49ZM74.8646 1267.69C84.1897 1264.36 92.6417 1259.94 101.485 1255.5L191.441 1208.81C187.545 1201.25 146.803 1137.35 141.828 1133.7C117.122 1169.59 88.6559 1202.03 64.2341 1237.99C57.0694 1248.54 69.6851 1259.26 74.8646 1267.69Z" fill="#E6E0D9" fill-opacity="0.298039"/>
<path d="M78.1908 1029.56C83.5815 1033.85 131.7 1115.36 137.59 1126.08C115.108 1153.84 89.2666 1187.4 68.6342 1216.41C63.7742 1223.59 58.7164 1230.64 53.4667 1237.54C43.5813 1232.35 36.4731 1226.97 27.4697 1220.49C33.1761 1202.13 38.8546 1178.71 43.9596 1159.73L78.1908 1029.56Z" fill="#1E2121" fill-opacity="0.298039"/>
<path d="M141.828 1133.7C146.803 1137.35 187.545 1201.25 191.441 1208.81L101.485 1255.5C92.6417 1259.94 84.1897 1264.36 74.8646 1267.69C69.6851 1259.26 57.0694 1248.54 64.2341 1237.99C88.6559 1202.03 117.122 1169.59 141.828 1133.7Z" fill="#1E2121" fill-opacity="0.298039"/>
<path d="M2768 406.237C2744.66 371.484 2723.77 334.568 2700.09 299.951C2695.16 292.748 2702.69 264.247 2704.68 254.349C2709.69 229.953 2714.95 205.607 2720.44 181.314C2726.62 153.299 2732.57 125.142 2738.35 97.0246C2739.22 94.9466 2739.36 90.2998 2741.86 89.6156C2749.5 87.5265 2760.77 92.2543 2768 94.5989V406.237Z" fill="#1E2121" fill-opacity="0.298039"/>
<path d="M0 893.847C10.1822 908.339 21.9091 927.824 31.1688 943.306C40.2962 958.567 74.7975 1009.39 70.8363 1025.83C59.9374 1071.07 46.8786 1115.72 35.3206 1160.78C30.4859 1179.63 26.0232 1199.15 20.6094 1217.69C14.445 1216.37 6.08695 1214.3 0 1213.48V893.847Z" fill="#1E2121" fill-opacity="0.298039"/>
<path d="M2768 877.99V978.494C2766.76 985.588 2766.82 999.692 2766.64 1007.51C2766.19 1027.68 2765.94 1047.85 2765.89 1068.02C2765.5 1114.55 2763.25 1164.86 2765.41 1210.83C2758.9 1214.46 2753.94 1215.54 2746.73 1217C2739.05 1195.63 2734.95 1171.93 2730.27 1149.65L2711.07 1058.72C2706.88 1038.98 2702.6 1016.49 2695.16 997.907C2706.04 977.394 2718.59 958.65 2730.66 938.956C2743.14 918.578 2755.25 898.247 2768 877.99Z" fill="#1E2121" fill-opacity="0.298039"/>
<path d="M0 94.5055C9.53233 91.9503 18.4701 90.2506 28.1647 88.3664L56.8683 211.234C62.5122 234.917 68.7896 257.482 73.4122 281.453C50.6962 320.141 26.1992 357.755 0 394.175V94.5055Z" fill="#1E2121" fill-opacity="0.298039"/>
<path d="M1763.34 0H1926.32C1925.63 17.4864 1919.35 34.2902 1908.4 47.9413C1894.73 64.82 1874.9 75.5511 1853.29 77.7567C1831.74 79.9989 1810.18 73.5635 1793.38 59.8732C1773.75 43.8154 1765.68 24.5349 1763.34 0Z" fill="#1E2121" fill-opacity="0.298039"/>
<path d="M836.761 0H999.655C998.13 18.7127 992.928 34.2784 980.714 48.8894C966.721 65.6496 946.58 76.0844 924.817 77.8488C902.864 79.6495 881.113 72.511 864.496 58.0516C846.968 42.752 838.278 22.961 836.761 0Z" fill="#1E2121" fill-opacity="0.298039"/>
<path d="M1768.33 1278C1771.55 1265.85 1780.49 1253.26 1789.18 1244.4C1823.67 1209.19 1892.12 1224.49 1914.87 1265.79C1917.04 1269.73 1918.92 1273.86 1920.76 1278H1768.33Z" fill="#1E2121" fill-opacity="0.298039"/>
<path d="M841.714 1278C851.166 1255.76 865.12 1239.67 888.106 1230.52C908.419 1222.47 931.101 1222.85 951.133 1231.58C971.081 1240.27 986.649 1256.69 994.275 1277.07C994.383 1277.38 994.491 1277.69 994.6 1278H841.714Z" fill="#1E2121" fill-opacity="0.298039"/>
<path d="M2562.3 1212.07C2577.93 1220.13 2682.57 1269.9 2685.96 1278H2524.28C2536.52 1257.46 2551.09 1233.14 2562.3 1212.07Z" fill="#1E2121" fill-opacity="0.298039"/>
<path d="M1635.42 1212.54C1669.85 1230.91 1705.52 1247.01 1740.22 1264.87C1745.07 1267.37 1758.39 1272.98 1759.31 1278H1597.06L1635.42 1212.54Z" fill="#1E2121" fill-opacity="0.298039"/>
<path d="M709.256 1211.91C729.43 1222.72 750.104 1233.75 770.482 1244.05C781.217 1249.48 828.355 1269.81 833.525 1278H670.592C683.373 1256.42 696.257 1233.1 709.256 1211.91Z" fill="#1E2121" fill-opacity="0.298039"/>
<path d="M1929.73 1278C1970.57 1257.13 2013.26 1240.15 2053.55 1216.79C2063.3 1234.03 2078.22 1261.64 2088.87 1278H1929.73Z" fill="#1E2121" fill-opacity="0.298039"/>
<path d="M78.6741 1278C79.9261 1276.4 80.8643 1275.48 82.7028 1274.63C122.201 1256.49 161.222 1238.33 199.326 1217.27C209.947 1232.24 224.251 1260.84 234.66 1278H78.6741Z" fill="#1E2121" fill-opacity="0.298039"/>
<path d="M1125.5 1217.22C1136.41 1232.34 1150.53 1260.24 1161.51 1278H1005.61C1013.13 1272.12 1034.9 1262.97 1044.66 1258.32C1071.51 1245.52 1100.5 1233.41 1125.5 1217.22Z" fill="#1E2121" fill-opacity="0.298039"/>
<path d="M2690.95 0H2768V79.2607C2752.56 77.8111 2737.84 72.0303 2725.54 62.5839C2704.7 46.4562 2694.31 25.7159 2690.95 0Z" fill="#1E2121" fill-opacity="0.298039"/>
<path d="M0 0H72.2386C70.222 39.9518 40.9192 75.9378 0 80.1264V0Z" fill="#1E2121" fill-opacity="0.298039"/>
<path d="M2768 1225.21V1278H2694.59C2709.41 1244.56 2729.31 1223.93 2768 1225.21Z" fill="#1E2121" fill-opacity="0.298039"/>
<path d="M2768 587.173V677.865C2748.11 673.882 2731.87 659.185 2728.61 638.738C2726.75 626.525 2729.82 614.075 2737.14 604.123C2745.44 592.931 2754.93 589.122 2768 587.173Z" fill="#1E2121" fill-opacity="0.298039"/>
<path d="M0 587.515C14.1729 591.5 24.5998 596.989 32.1941 610.486C38.3024 621.274 39.7173 634.096 36.1084 645.957C32.6471 657.48 24.6771 667.115 14.0079 672.675C9.51619 675.068 4.92477 676.472 0 677.613V587.515Z" fill="#1E2121" fill-opacity="0.298039"/>
<path d="M0 1226.22C36.3121 1233.19 51.7751 1243.58 66.5877 1278H0V1226.22Z" fill="#1E2121" fill-opacity="0.298039"/>
<path d="M2261.53 1278C2266.96 1265 2274.09 1255.69 2287.45 1250.07C2298.64 1245.47 2311.21 1245.49 2322.38 1250.15C2333.85 1254.92 2343.87 1266.21 2347.64 1278H2261.53Z" fill="#1E2121" fill-opacity="0.298039"/>
<path d="M494.588 1278C483.028 1239.51 426.311 1233.93 408.102 1278H494.588Z" fill="#1E2121" fill-opacity="0.298039"/>
<path d="M1335.13 1278C1346.96 1238.21 1398.97 1236.4 1418.73 1273.94C1419.43 1275.28 1420.11 1276.64 1420.77 1278H1335.13Z" fill="#1E2121" fill-opacity="0.298039"/>
<path d="M2263.28 0H2347C2337.76 23.3623 2313.61 34.2484 2290.05 25.1992C2278.15 20.6677 2268.52 11.6079 2263.28 0Z" fill="#1E2121" fill-opacity="0.298039"/>
<path d="M410.519 0H495.454C474.776 29.6192 448.789 40.7784 418.13 12.3793C414.784 9.28048 412.558 4.1433 410.519 0Z" fill="#1E2121" fill-opacity="0.298039"/>
<path d="M1336.21 0H1420.34C1415.22 10.0679 1409.61 17.3056 1399.34 22.7267C1388.68 28.3597 1376.21 29.4897 1364.71 25.8643C1350.65 21.3853 1342.73 12.7004 1336.21 0Z" fill="#1E2121" fill-opacity="0.298039"/>
</svg>
